{
	"asset":{
		"generator":"Khronos glTF Blender I/O v5.0.21",
		"version":"2.0"
	},
	"scene":0,
	"scenes":[
		{
			"name":"Scene",
			"nodes":[
				0,
				1,
				2,
				3,
				4
			]
		}
	],
	"nodes":[
		{
			"mesh":0,
			"name":"nettle_plant_medium_b_LOD0"
		},
		{
			"mesh":1,
			"name":"nettle_plant_tall_a_LOD0"
		},
		{
			"mesh":2,
			"name":"potted_plant_02_dirt"
		},
		{
			"mesh":3,
			"name":"potted_plant_02_pot"
		},
		{
			"mesh":4,
			"name":"wooden_picnic_table"
		}
	],
	"materials":[
		{
			"alphaMode":"BLEND",
			"doubleSided":true,
			"name":"nettle_plant.001",
			"pbrMetallicRoughness":{
				"baseColorFactor":[
					1,
					1,
					1,
					1
				],
				"baseColorTexture":{
					"index":0
				},
				"metallicFactor":0,
				"roughnessFactor":0.3999999761581421
			}
		},
		{
			"alphaMode":"BLEND",
			"doubleSided":true,
			"name":"nettle_plant.002",
			"pbrMetallicRoughness":{
				"baseColorFactor":[
					1,
					1,
					1,
					1
				],
				"baseColorTexture":{
					"index":1
				},
				"metallicFactor":0,
				"roughnessFactor":0.3999999761581421
			}
		},
		{
			"doubleSided":true,
			"name":"potted_plant_02_pot.001",
			"pbrMetallicRoughness":{
				"baseColorTexture":{
					"index":2
				},
				"metallicFactor":0,
				"roughnessFactor":0
			}
		},
		{
			"doubleSided":true,
			"name":"wooden_picnic_table_bottom.001",
			"pbrMetallicRoughness":{
				"baseColorTexture":{
					"index":3
				},
				"metallicFactor":0.01,
				"roughnessFactor":0
			}
		},
		{
			"doubleSided":true,
			"name":"wooden_picnic_table_table.001",
			"pbrMetallicRoughness":{
				"baseColorTexture":{
					"index":4
				},
				"metallicFactor":0.01,
				"roughnessFactor":0
			}
		}
	],
	"meshes":[
		{
			"name":"nettle_plant_medium_b_LOD0.001",
			"primitives":[
				{
					"attributes":{
						"POSITION":0,
						"NORMAL":1,
						"TEXCOORD_0":2
					},
					"indices":3,
					"material":0
				}
			]
		},
		{
			"name":"nettle_plant_tall_a_LOD0.001",
			"primitives":[
				{
					"attributes":{
						"POSITION":4,
						"NORMAL":5,
						"TEXCOORD_0":6
					},
					"indices":7,
					"material":1
				}
			]
		},
		{
			"name":"potted_plant_02_dirt.001",
			"primitives":[
				{
					"attributes":{
						"POSITION":8,
						"NORMAL":9,
						"TEXCOORD_0":10
					},
					"indices":11,
					"material":2
				}
			]
		},
		{
			"name":"potted_plant_02_pot.001",
			"primitives":[
				{
					"attributes":{
						"POSITION":12,
						"NORMAL":13,
						"TEXCOORD_0":14
					},
					"indices":15,
					"material":2
				}
			]
		},
		{
			"name":"wooden_picnic_table.001",
			"primitives":[
				{
					"attributes":{
						"POSITION":16,
						"NORMAL":17,
						"TEXCOORD_0":18
					},
					"indices":19,
					"material":3
				},
				{
					"attributes":{
						"POSITION":20,
						"NORMAL":21,
						"TEXCOORD_0":22
					},
					"indices":23,
					"material":4
				}
			]
		}
	],
	"textures":[
		{
			"sampler":0,
			"source":0
		},
		{
			"sampler":0,
			"source":0
		},
		{
			"sampler":0,
			"source":1
		},
		{
			"sampler":0,
			"source":2
		},
		{
			"sampler":0,
			"source":3
		}
	],
	"images":[
		{
			"mimeType":"image/png",
			"name":"nettle_plant_diff_4k",
			"uri":"nettle_plant_diff_4k.png"
		},
		{
			"mimeType":"image/png",
			"name":"potted_plant_02_pot_diff_1k",
			"uri":"potted_plant_02_pot_diff_1k.png"
		},
		{
			"mimeType":"image/png",
			"name":"wooden_picnic_table_bottom_diff_1k",
			"uri":"wooden_picnic_table_bottom_diff_1k.png"
		},
		{
			"mimeType":"image/png",
			"name":"wooden_picnic_table_top_diff_1k",
			"uri":"wooden_picnic_table_top_diff_1k.png"
		}
	],
	"accessors":[
		{
			"bufferView":0,
			"componentType":5126,
			"count":3641,
			"max":[
				0.08973100036382675,
				0.741150975227356,
				0.23586000502109528
			],
			"min":[
				-0.20037899911403656,
				0.30744099617004395,
				-0.038162000477313995
			],
			"type":"VEC3"
		},
		{
			"bufferView":1,
			"componentType":5126,
			"count":3641,
			"type":"VEC3"
		},
		{
			"bufferView":2,
			"componentType":5126,
			"count":3641,
			"type":"VEC2"
		},
		{
			"bufferView":3,
			"componentType":5123,
			"count":16992,
			"type":"SCALAR"
		},
		{
			"bufferView":4,
			"componentType":5126,
			"count":4462,
			"max":[
				0.24445000290870667,
				0.9234650135040283,
				0.11375699937343597
			],
			"min":[
				-0.08086299896240234,
				0.3094080090522766,
				-0.18082299828529358
			],
			"type":"VEC3"
		},
		{
			"bufferView":5,
			"componentType":5126,
			"count":4462,
			"type":"VEC3"
		},
		{
			"bufferView":6,
			"componentType":5126,
			"count":4462,
			"type":"VEC2"
		},
		{
			"bufferView":7,
			"componentType":5123,
			"count":20952,
			"type":"SCALAR"
		},
		{
			"bufferView":8,
			"componentType":5126,
			"count":34606,
			"max":[
				0.2079170048236847,
				0.3407619893550873,
				0.20657099783420563
			],
			"min":[
				-0.20293700695037842,
				0.29688501358032227,
				-0.20760999619960785
			],
			"type":"VEC3"
		},
		{
			"bufferView":9,
			"componentType":5126,
			"count":34606,
			"type":"VEC3"
		},
		{
			"bufferView":10,
			"componentType":5126,
			"count":34606,
			"type":"VEC2"
		},
		{
			"bufferView":11,
			"componentType":5123,
			"count":161790,
			"type":"SCALAR"
		},
		{
			"bufferView":12,
			"componentType":5126,
			"count":2840,
			"max":[
				0.23707400262355804,
				0.3361949920654297,
				0.23707400262355804
			],
			"min":[
				-0.23707400262355804,
				5.2999999752501026e-05,
				-0.23707400262355804
			],
			"type":"VEC3"
		},
		{
			"bufferView":13,
			"componentType":5126,
			"count":2840,
			"type":"VEC3"
		},
		{
			"bufferView":14,
			"componentType":5126,
			"count":2840,
			"type":"VEC2"
		},
		{
			"bufferView":15,
			"componentType":5123,
			"count":15552,
			"type":"SCALAR"
		},
		{
			"bufferView":16,
			"componentType":5126,
			"count":2890,
			"max":[
				1.501520037651062,
				-0.04135100170969963,
				1.1197270154953003
			],
			"min":[
				-1.5208100080490112,
				-0.7453640103340149,
				-1.1212489604949951
			],
			"type":"VEC3"
		},
		{
			"bufferView":17,
			"componentType":5126,
			"count":2890,
			"type":"VEC3"
		},
		{
			"bufferView":18,
			"componentType":5126,
			"count":2890,
			"type":"VEC2"
		},
		{
			"bufferView":19,
			"componentType":5123,
			"count":7878,
			"type":"SCALAR"
		},
		{
			"bufferView":20,
			"componentType":5126,
			"count":8243,
			"max":[
				1.4654229879379272,
				0.0006230000290088356,
				0.6173740029335022
			],
			"min":[
				-1.4567500352859497,
				-0.04744600132107735,
				-0.6282730102539062
			],
			"type":"VEC3"
		},
		{
			"bufferView":21,
			"componentType":5126,
			"count":8243,
			"type":"VEC3"
		},
		{
			"bufferView":22,
			"componentType":5126,
			"count":8243,
			"type":"VEC2"
		},
		{
			"bufferView":23,
			"componentType":5123,
			"count":22752,
			"type":"SCALAR"
		}
	],
	"bufferViews":[
		{
			"buffer":0,
			"byteLength":43692,
			"byteOffset":0,
			"target":34962
		},
		{
			"buffer":0,
			"byteLength":43692,
			"byteOffset":43692,
			"target":34962
		},
		{
			"buffer":0,
			"byteLength":29128,
			"byteOffset":87384,
			"target":34962
		},
		{
			"buffer":0,
			"byteLength":33984,
			"byteOffset":116512,
			"target":34963
		},
		{
			"buffer":0,
			"byteLength":53544,
			"byteOffset":150496,
			"target":34962
		},
		{
			"buffer":0,
			"byteLength":53544,
			"byteOffset":204040,
			"target":34962
		},
		{
			"buffer":0,
			"byteLength":35696,
			"byteOffset":257584,
			"target":34962
		},
		{
			"buffer":0,
			"byteLength":41904,
			"byteOffset":293280,
			"target":34963
		},
		{
			"buffer":0,
			"byteLength":415272,
			"byteOffset":335184,
			"target":34962
		},
		{
			"buffer":0,
			"byteLength":415272,
			"byteOffset":750456,
			"target":34962
		},
		{
			"buffer":0,
			"byteLength":276848,
			"byteOffset":1165728,
			"target":34962
		},
		{
			"buffer":0,
			"byteLength":323580,
			"byteOffset":1442576,
			"target":34963
		},
		{
			"buffer":0,
			"byteLength":34080,
			"byteOffset":1766156,
			"target":34962
		},
		{
			"buffer":0,
			"byteLength":34080,
			"byteOffset":1800236,
			"target":34962
		},
		{
			"buffer":0,
			"byteLength":22720,
			"byteOffset":1834316,
			"target":34962
		},
		{
			"buffer":0,
			"byteLength":31104,
			"byteOffset":1857036,
			"target":34963
		},
		{
			"buffer":0,
			"byteLength":34680,
			"byteOffset":1888140,
			"target":34962
		},
		{
			"buffer":0,
			"byteLength":34680,
			"byteOffset":1922820,
			"target":34962
		},
		{
			"buffer":0,
			"byteLength":23120,
			"byteOffset":1957500,
			"target":34962
		},
		{
			"buffer":0,
			"byteLength":15756,
			"byteOffset":1980620,
			"target":34963
		},
		{
			"buffer":0,
			"byteLength":98916,
			"byteOffset":1996376,
			"target":34962
		},
		{
			"buffer":0,
			"byteLength":98916,
			"byteOffset":2095292,
			"target":34962
		},
		{
			"buffer":0,
			"byteLength":65944,
			"byteOffset":2194208,
			"target":34962
		},
		{
			"buffer":0,
			"byteLength":45504,
			"byteOffset":2260152,
			"target":34963
		}
	],
	"samplers":[
		{
			"magFilter":9729,
			"minFilter":9987
		}
	],
	"buffers":[
		{
			"byteLength":2305656,
			"uri":"Untitled.bin"
		}
	]
}
