{
	"asset":{
		"generator":"Khronos glTF Blender I/O v5.2.39",
		"version":"2.0"
	},
	"scene":0,
	"scenes":[
		{
			"name":"Scene",
			"nodes":[
				0,
				26
			]
		}
	],
	"nodes":[
		{
			"mesh":0,
			"name":"bunny",
			"rotation":[
				0.70710688829422,
				0,
				0,
				0.7071066498756409
			]
		},
		{
			"name":"b_LeftFoot02_018",
			"rotation":[
				7.177339256259074e-08,
				3.227020783924672e-08,
				0.5472886562347412,
				0.8369439840316772
			],
			"scale":[
				0.9999999403953552,
				0.9999998807907104,
				1
			],
			"translation":[
				15.77993392944336,
				-4.887580871582031e-06,
				-4.410743713378906e-06
			]
		},
		{
			"children":[
				1
			],
			"name":"b_LeftFoot01_017",
			"rotation":[
				0.0002483793650753796,
				-1.7920898187639978e-07,
				0.4584846794605255,
				0.8887023329734802
			],
			"scale":[
				0.9999999403953552,
				1,
				1
			],
			"translation":[
				17.942806243896484,
				3.719329833984375e-05,
				-2.384185791015625e-06
			]
		},
		{
			"children":[
				2
			],
			"name":"b_LeftLeg02_016",
			"rotation":[
				1.0454497356704451e-07,
				-4.1367246694790083e-07,
				-0.36804357171058655,
				0.9298085570335388
			],
			"scale":[
				1,
				0.9999999403953552,
				1.0000001192092896
			],
			"translation":[
				18.944168090820312,
				2.2649765014648438e-06,
				2.1696090698242188e-05
			]
		},
		{
			"children":[
				3
			],
			"name":"b_LeftLeg01_015",
			"rotation":[
				7.210409194158274e-07,
				0.0001718160492600873,
				-0.9700163006782532,
				0.24303977191448212
			],
			"scale":[
				1.0000001192092896,
				0.9999999403953552,
				1
			],
			"translation":[
				4.81378698348999,
				5.153993606567383,
				-6.968009948730469
			]
		},
		{
			"name":"b_RightFoot02_022",
			"rotation":[
				-1.1517116860204624e-07,
				3.5664118058775784e-07,
				0.5472877621650696,
				0.8369445204734802
			],
			"scale":[
				1,
				1.0000001192092896,
				1.0000001192092896
			],
			"translation":[
				15.779938697814941,
				-2.3603439331054688e-05,
				3.5762786865234375e-06
			]
		},
		{
			"children":[
				5
			],
			"name":"b_RightFoot01_021",
			"rotation":[
				-0.00015321171667892486,
				3.1638188602300943e-07,
				0.45790988206863403,
				0.8889986276626587
			],
			"scale":[
				0.9999998211860657,
				0.9999999403953552,
				0.9999998807907104
			],
			"translation":[
				17.942821502685547,
				1.33514404296875e-05,
				-1.9311904907226562e-05
			]
		},
		{
			"children":[
				6
			],
			"name":"b_RightLeg02_020",
			"rotation":[
				-2.311258242571057e-07,
				-3.505700476580387e-07,
				-0.36804404854774475,
				0.9298083782196045
			],
			"scale":[
				0.9999999403953552,
				0.9999998807907104,
				0.9999999403953552
			],
			"translation":[
				18.944189071655273,
				-4.172325134277344e-06,
				-6.9141387939453125e-06
			]
		},
		{
			"children":[
				7
			],
			"name":"b_RightLeg01_019",
			"rotation":[
				9.69769118341901e-08,
				-1.4192471553542418e-07,
				-0.9699587821960449,
				0.24326930940151215
			],
			"scale":[
				0.9999992847442627,
				0.9999998807907104,
				1
			],
			"translation":[
				4.813784599304199,
				5.154005527496338,
				6.967560768127441
			]
		},
		{
			"name":"b_LeftHand_011",
			"rotation":[
				0.01651780866086483,
				0.01401318609714508,
				0.46007612347602844,
				0.8876152038574219
			],
			"scale":[
				1,
				0.9999998807907104,
				1
			],
			"translation":[
				19.350046157836914,
				-0.1459791660308838,
				2.0116567611694336e-05
			]
		},
		{
			"children":[
				9
			],
			"name":"b_LeftForeArm_010",
			"rotation":[
				-6.104372118898027e-08,
				9.169372106043738e-07,
				0.037125684320926666,
				0.9993106126785278
			],
			"scale":[
				0.9999999403953552,
				0.9999998807907104,
				0.9999999403953552
			],
			"translation":[
				23.045124053955078,
				-3.814697265625e-06,
				-2.2172927856445312e-05
			]
		},
		{
			"children":[
				10
			],
			"name":"b_LeftUpperArm_09",
			"rotation":[
				0.0004968944122083485,
				-0.0008825447293929756,
				-0.7120874524116516,
				0.7020900845527649
			],
			"scale":[
				0.9999999403953552,
				1,
				1
			],
			"translation":[
				18.67790985107422,
				-4.2973432540893555,
				-6.967995643615723
			]
		},
		{
			"name":"b_Head_05",
			"rotation":[
				-4.065174863399079e-08,
				-9.776751994650112e-07,
				-0.40028566122055054,
				0.9163904190063477
			],
			"scale":[
				1,
				1,
				1.0000001192092896
			],
			"translation":[
				13.376956939697266,
				1.1444091796875e-05,
				4.291534423828125e-06
			]
		},
		{
			"children":[
				12
			],
			"name":"b_Neck_04",
			"rotation":[
				-1.4660804481536616e-07,
				4.559509818591323e-07,
				0.3033789098262787,
				0.9528700113296509
			],
			"scale":[
				1,
				0.9999999403953552,
				0.9999999403953552
			],
			"translation":[
				25.64913558959961,
				9.5367431640625e-07,
				-9.5367431640625e-06
			]
		},
		{
			"name":"b_RightHand_08",
			"rotation":[
				-0.0120372474193573,
				-0.007822281681001186,
				0.4605628252029419,
				0.8875110745429993
			],
			"scale":[
				1,
				0.9999998807907104,
				0.9999999403953552
			],
			"translation":[
				19.350055694580078,
				-0.14598125219345093,
				8.940696716308594e-08
			]
		},
		{
			"children":[
				14
			],
			"name":"b_RightForeArm_07",
			"rotation":[
				-1.8546101898664347e-07,
				-1.0034932529379148e-06,
				0.03712654858827591,
				0.9993106126785278
			],
			"scale":[
				1.0000001192092896,
				1.0000001192092896,
				1.0000001192092896
			],
			"translation":[
				23.045122146606445,
				3.4809112548828125e-05,
				4.410743713378906e-05
			]
		},
		{
			"children":[
				15
			],
			"name":"b_RightUpperArm_06",
			"rotation":[
				0.00046805059537291527,
				-0.00044557961518876255,
				-0.7121798992156982,
				0.7019968032836914
			],
			"scale":[
				0.9999998211860657,
				0.9999999403953552,
				0.9999999403953552
			],
			"translation":[
				18.67791175842285,
				-4.297335624694824,
				6.967568397521973
			]
		},
		{
			"children":[
				11,
				13,
				16
			],
			"name":"b_Spine02_03",
			"rotation":[
				-1.02461008566479e-08,
				-4.4989698722019966e-07,
				0.017412004992365837,
				0.9998484253883362
			],
			"scale":[
				1,
				1.0000001192092896,
				1.0000001192092896
			],
			"translation":[
				21.655738830566406,
				-0.00011141598224639893,
				1.9073486328125e-05
			]
		},
		{
			"children":[
				17
			],
			"name":"b_Spine01_02",
			"rotation":[
				4.1540914708093624e-07,
				1.223149297402415e-07,
				-0.5904167890548706,
				0.8070985674858093
			],
			"scale":[
				0.9999999403953552,
				0.9999999403953552,
				1
			],
			"translation":[
				12.850595474243164,
				-4.3392181396484375e-05,
				4.76837158203125e-06
			]
		},
		{
			"name":"b_Tail03_014",
			"rotation":[
				1.3057452896703126e-08,
				6.342190062014197e-08,
				-0.05383261293172836,
				0.9985499382019043
			],
			"scale":[
				1,
				0.9999999403953552,
				0.9999999403953552
			],
			"translation":[
				24.2403507232666,
				3.4332275390625e-05,
				1.6689300537109375e-06
			]
		},
		{
			"children":[
				19
			],
			"name":"b_Tail02_013",
			"rotation":[
				3.734350428885591e-08,
				2.8941219198941326e-08,
				-0.06961745023727417,
				0.9975737929344177
			],
			"scale":[
				0.9999999403953552,
				1,
				1
			],
			"translation":[
				12.411928176879883,
				1.52587890625e-05,
				1.3828277587890625e-05
			]
		},
		{
			"children":[
				20
			],
			"name":"b_Tail01_012",
			"rotation":[
				-4.277724201529054e-07,
				-1.9918450888667394e-08,
				0.9818927049636841,
				0.1894380748271942
			],
			"scale":[
				0.9999993443489075,
				0.9999999403953552,
				1
			],
			"translation":[
				4.260412216186523,
				15.958739280700684,
				-9.5367431640625e-07
			]
		},
		{
			"children":[
				4,
				8,
				18,
				21
			],
			"name":"b_Hip_01",
			"rotation":[
				0.12769024074077606,
				-0.6954819560050964,
				-0.127689391374588,
				0.6954821944236755
			],
			"scale":[
				1,
				1.0000001192092896,
				1.0000001192092896
			],
			"translation":[
				-5.245208740234375e-06,
				26.7484073638916,
				42.938175201416016
			]
		},
		{
			"children":[
				22
			],
			"name":"b_Root_00",
			"rotation":[
				-0.7071080207824707,
				2.1073384814940255e-08,
				1.778066938129541e-08,
				0.7071055173873901
			],
			"scale":[
				1,
				1.0000001192092896,
				1
			],
			"translation":[
				-3.814697265625e-06,
				0,
				-3.814697265625e-06
			]
		},
		{
			"children":[
				23
			],
			"name":"_rootJoint",
			"rotation":[
				-6.519258910486769e-09,
				2.0023435354232788e-08,
				-1.862645593320167e-09,
				1
			],
			"scale":[
				1,
				0.9999999403953552,
				1
			],
			"translation":[
				-3.814697265625e-06,
				0,
				-3.814697265625e-06
			]
		},
		{
			"mesh":1,
			"name":"fox",
			"skin":0
		},
		{
			"children":[
				25,
				24
			],
			"name":"root",
			"rotation":[
				-0.23958487808704376,
				-0.5992639064788818,
				0.6783208847045898,
				0.3512301743030548
			],
			"scale":[
				0.015000000596046448,
				0.014999999664723873,
				0.014999999664723873
			],
			"translation":[
				1.2699999809265137,
				0,
				0
			]
		}
	],
	"animations":[
		{
			"channels":[
				{
					"sampler":0,
					"target":{
						"node":24,
						"path":"translation"
					}
				},
				{
					"sampler":1,
					"target":{
						"node":24,
						"path":"rotation"
					}
				},
				{
					"sampler":2,
					"target":{
						"node":24,
						"path":"scale"
					}
				},
				{
					"sampler":3,
					"target":{
						"node":23,
						"path":"translation"
					}
				},
				{
					"sampler":4,
					"target":{
						"node":23,
						"path":"rotation"
					}
				},
				{
					"sampler":5,
					"target":{
						"node":23,
						"path":"scale"
					}
				},
				{
					"sampler":6,
					"target":{
						"node":22,
						"path":"translation"
					}
				},
				{
					"sampler":7,
					"target":{
						"node":22,
						"path":"rotation"
					}
				},
				{
					"sampler":8,
					"target":{
						"node":22,
						"path":"scale"
					}
				},
				{
					"sampler":9,
					"target":{
						"node":4,
						"path":"translation"
					}
				},
				{
					"sampler":10,
					"target":{
						"node":4,
						"path":"rotation"
					}
				},
				{
					"sampler":11,
					"target":{
						"node":4,
						"path":"scale"
					}
				},
				{
					"sampler":12,
					"target":{
						"node":3,
						"path":"translation"
					}
				},
				{
					"sampler":13,
					"target":{
						"node":3,
						"path":"rotation"
					}
				},
				{
					"sampler":14,
					"target":{
						"node":3,
						"path":"scale"
					}
				},
				{
					"sampler":15,
					"target":{
						"node":2,
						"path":"translation"
					}
				},
				{
					"sampler":16,
					"target":{
						"node":2,
						"path":"rotation"
					}
				},
				{
					"sampler":17,
					"target":{
						"node":2,
						"path":"scale"
					}
				},
				{
					"sampler":18,
					"target":{
						"node":1,
						"path":"translation"
					}
				},
				{
					"sampler":19,
					"target":{
						"node":1,
						"path":"rotation"
					}
				},
				{
					"sampler":20,
					"target":{
						"node":1,
						"path":"scale"
					}
				},
				{
					"sampler":21,
					"target":{
						"node":8,
						"path":"translation"
					}
				},
				{
					"sampler":22,
					"target":{
						"node":8,
						"path":"rotation"
					}
				},
				{
					"sampler":23,
					"target":{
						"node":8,
						"path":"scale"
					}
				},
				{
					"sampler":24,
					"target":{
						"node":7,
						"path":"translation"
					}
				},
				{
					"sampler":25,
					"target":{
						"node":7,
						"path":"rotation"
					}
				},
				{
					"sampler":26,
					"target":{
						"node":7,
						"path":"scale"
					}
				},
				{
					"sampler":27,
					"target":{
						"node":6,
						"path":"translation"
					}
				},
				{
					"sampler":28,
					"target":{
						"node":6,
						"path":"rotation"
					}
				},
				{
					"sampler":29,
					"target":{
						"node":6,
						"path":"scale"
					}
				},
				{
					"sampler":30,
					"target":{
						"node":5,
						"path":"translation"
					}
				},
				{
					"sampler":31,
					"target":{
						"node":5,
						"path":"rotation"
					}
				},
				{
					"sampler":32,
					"target":{
						"node":5,
						"path":"scale"
					}
				},
				{
					"sampler":33,
					"target":{
						"node":18,
						"path":"translation"
					}
				},
				{
					"sampler":34,
					"target":{
						"node":18,
						"path":"rotation"
					}
				},
				{
					"sampler":35,
					"target":{
						"node":18,
						"path":"scale"
					}
				},
				{
					"sampler":36,
					"target":{
						"node":17,
						"path":"translation"
					}
				},
				{
					"sampler":37,
					"target":{
						"node":17,
						"path":"rotation"
					}
				},
				{
					"sampler":38,
					"target":{
						"node":17,
						"path":"scale"
					}
				},
				{
					"sampler":39,
					"target":{
						"node":11,
						"path":"translation"
					}
				},
				{
					"sampler":40,
					"target":{
						"node":11,
						"path":"rotation"
					}
				},
				{
					"sampler":41,
					"target":{
						"node":11,
						"path":"scale"
					}
				},
				{
					"sampler":42,
					"target":{
						"node":10,
						"path":"translation"
					}
				},
				{
					"sampler":43,
					"target":{
						"node":10,
						"path":"rotation"
					}
				},
				{
					"sampler":44,
					"target":{
						"node":10,
						"path":"scale"
					}
				},
				{
					"sampler":45,
					"target":{
						"node":9,
						"path":"translation"
					}
				},
				{
					"sampler":46,
					"target":{
						"node":9,
						"path":"rotation"
					}
				},
				{
					"sampler":47,
					"target":{
						"node":9,
						"path":"scale"
					}
				},
				{
					"sampler":48,
					"target":{
						"node":13,
						"path":"translation"
					}
				},
				{
					"sampler":49,
					"target":{
						"node":13,
						"path":"rotation"
					}
				},
				{
					"sampler":50,
					"target":{
						"node":13,
						"path":"scale"
					}
				},
				{
					"sampler":51,
					"target":{
						"node":12,
						"path":"translation"
					}
				},
				{
					"sampler":52,
					"target":{
						"node":12,
						"path":"rotation"
					}
				},
				{
					"sampler":53,
					"target":{
						"node":12,
						"path":"scale"
					}
				},
				{
					"sampler":54,
					"target":{
						"node":16,
						"path":"translation"
					}
				},
				{
					"sampler":55,
					"target":{
						"node":16,
						"path":"rotation"
					}
				},
				{
					"sampler":56,
					"target":{
						"node":16,
						"path":"scale"
					}
				},
				{
					"sampler":57,
					"target":{
						"node":15,
						"path":"translation"
					}
				},
				{
					"sampler":58,
					"target":{
						"node":15,
						"path":"rotation"
					}
				},
				{
					"sampler":59,
					"target":{
						"node":15,
						"path":"scale"
					}
				},
				{
					"sampler":60,
					"target":{
						"node":14,
						"path":"translation"
					}
				},
				{
					"sampler":61,
					"target":{
						"node":14,
						"path":"rotation"
					}
				},
				{
					"sampler":62,
					"target":{
						"node":14,
						"path":"scale"
					}
				},
				{
					"sampler":63,
					"target":{
						"node":21,
						"path":"translation"
					}
				},
				{
					"sampler":64,
					"target":{
						"node":21,
						"path":"rotation"
					}
				},
				{
					"sampler":65,
					"target":{
						"node":21,
						"path":"scale"
					}
				},
				{
					"sampler":66,
					"target":{
						"node":20,
						"path":"translation"
					}
				},
				{
					"sampler":67,
					"target":{
						"node":20,
						"path":"rotation"
					}
				},
				{
					"sampler":68,
					"target":{
						"node":20,
						"path":"scale"
					}
				},
				{
					"sampler":69,
					"target":{
						"node":19,
						"path":"translation"
					}
				},
				{
					"sampler":70,
					"target":{
						"node":19,
						"path":"rotation"
					}
				},
				{
					"sampler":71,
					"target":{
						"node":19,
						"path":"scale"
					}
				}
			],
			"name":"Run",
			"samplers":[
				{
					"input":11,
					"interpolation":"STEP",
					"output":12
				},
				{
					"input":11,
					"interpolation":"STEP",
					"output":13
				},
				{
					"input":11,
					"interpolation":"STEP",
					"output":14
				},
				{
					"input":11,
					"interpolation":"STEP",
					"output":12
				},
				{
					"input":11,
					"interpolation":"STEP",
					"output":15
				},
				{
					"input":11,
					"interpolation":"STEP",
					"output":14
				},
				{
					"input":16,
					"interpolation":"LINEAR",
					"output":17
				},
				{
					"input":16,
					"interpolation":"LINEAR",
					"output":18
				},
				{
					"input":11,
					"interpolation":"STEP",
					"output":19
				},
				{
					"input":11,
					"interpolation":"STEP",
					"output":20
				},
				{
					"input":16,
					"interpolation":"LINEAR",
					"output":21
				},
				{
					"input":11,
					"interpolation":"STEP",
					"output":22
				},
				{
					"input":11,
					"interpolation":"STEP",
					"output":23
				},
				{
					"input":16,
					"interpolation":"LINEAR",
					"output":24
				},
				{
					"input":11,
					"interpolation":"STEP",
					"output":25
				},
				{
					"input":11,
					"interpolation":"STEP",
					"output":26
				},
				{
					"input":16,
					"interpolation":"LINEAR",
					"output":27
				},
				{
					"input":11,
					"interpolation":"STEP",
					"output":28
				},
				{
					"input":11,
					"interpolation":"STEP",
					"output":29
				},
				{
					"input":11,
					"interpolation":"STEP",
					"output":30
				},
				{
					"input":11,
					"interpolation":"STEP",
					"output":31
				},
				{
					"input":11,
					"interpolation":"STEP",
					"output":32
				},
				{
					"input":16,
					"interpolation":"LINEAR",
					"output":33
				},
				{
					"input":11,
					"interpolation":"STEP",
					"output":34
				},
				{
					"input":11,
					"interpolation":"STEP",
					"output":35
				},
				{
					"input":16,
					"interpolation":"LINEAR",
					"output":36
				},
				{
					"input":11,
					"interpolation":"STEP",
					"output":37
				},
				{
					"input":11,
					"interpolation":"STEP",
					"output":38
				},
				{
					"input":16,
					"interpolation":"LINEAR",
					"output":39
				},
				{
					"input":11,
					"interpolation":"STEP",
					"output":40
				},
				{
					"input":11,
					"interpolation":"STEP",
					"output":41
				},
				{
					"input":11,
					"interpolation":"STEP",
					"output":42
				},
				{
					"input":11,
					"interpolation":"STEP",
					"output":14
				},
				{
					"input":11,
					"interpolation":"STEP",
					"output":43
				},
				{
					"input":16,
					"interpolation":"LINEAR",
					"output":44
				},
				{
					"input":11,
					"interpolation":"STEP",
					"output":45
				},
				{
					"input":11,
					"interpolation":"STEP",
					"output":46
				},
				{
					"input":16,
					"interpolation":"LINEAR",
					"output":47
				},
				{
					"input":11,
					"interpolation":"STEP",
					"output":48
				},
				{
					"input":11,
					"interpolation":"STEP",
					"output":49
				},
				{
					"input":16,
					"interpolation":"LINEAR",
					"output":50
				},
				{
					"input":11,
					"interpolation":"STEP",
					"output":51
				},
				{
					"input":11,
					"interpolation":"STEP",
					"output":52
				},
				{
					"input":16,
					"interpolation":"LINEAR",
					"output":53
				},
				{
					"input":11,
					"interpolation":"STEP",
					"output":54
				},
				{
					"input":11,
					"interpolation":"STEP",
					"output":55
				},
				{
					"input":16,
					"interpolation":"LINEAR",
					"output":56
				},
				{
					"input":11,
					"interpolation":"STEP",
					"output":57
				},
				{
					"input":11,
					"interpolation":"STEP",
					"output":58
				},
				{
					"input":16,
					"interpolation":"LINEAR",
					"output":59
				},
				{
					"input":11,
					"interpolation":"STEP",
					"output":60
				},
				{
					"input":11,
					"interpolation":"STEP",
					"output":61
				},
				{
					"input":16,
					"interpolation":"LINEAR",
					"output":62
				},
				{
					"input":11,
					"interpolation":"STEP",
					"output":63
				},
				{
					"input":11,
					"interpolation":"STEP",
					"output":64
				},
				{
					"input":16,
					"interpolation":"LINEAR",
					"output":65
				},
				{
					"input":11,
					"interpolation":"STEP",
					"output":66
				},
				{
					"input":11,
					"interpolation":"STEP",
					"output":67
				},
				{
					"input":16,
					"interpolation":"LINEAR",
					"output":68
				},
				{
					"input":11,
					"interpolation":"STEP",
					"output":69
				},
				{
					"input":11,
					"interpolation":"STEP",
					"output":70
				},
				{
					"input":16,
					"interpolation":"LINEAR",
					"output":71
				},
				{
					"input":11,
					"interpolation":"STEP",
					"output":72
				},
				{
					"input":11,
					"interpolation":"STEP",
					"output":73
				},
				{
					"input":16,
					"interpolation":"LINEAR",
					"output":74
				},
				{
					"input":11,
					"interpolation":"STEP",
					"output":75
				},
				{
					"input":11,
					"interpolation":"STEP",
					"output":76
				},
				{
					"input":16,
					"interpolation":"LINEAR",
					"output":77
				},
				{
					"input":11,
					"interpolation":"STEP",
					"output":78
				},
				{
					"input":11,
					"interpolation":"STEP",
					"output":79
				},
				{
					"input":16,
					"interpolation":"LINEAR",
					"output":80
				},
				{
					"input":11,
					"interpolation":"STEP",
					"output":81
				}
			]
		},
		{
			"channels":[
				{
					"sampler":0,
					"target":{
						"node":24,
						"path":"translation"
					}
				},
				{
					"sampler":1,
					"target":{
						"node":24,
						"path":"rotation"
					}
				},
				{
					"sampler":2,
					"target":{
						"node":24,
						"path":"scale"
					}
				},
				{
					"sampler":3,
					"target":{
						"node":23,
						"path":"translation"
					}
				},
				{
					"sampler":4,
					"target":{
						"node":23,
						"path":"rotation"
					}
				},
				{
					"sampler":5,
					"target":{
						"node":23,
						"path":"scale"
					}
				},
				{
					"sampler":6,
					"target":{
						"node":22,
						"path":"translation"
					}
				},
				{
					"sampler":7,
					"target":{
						"node":22,
						"path":"rotation"
					}
				},
				{
					"sampler":8,
					"target":{
						"node":22,
						"path":"scale"
					}
				},
				{
					"sampler":9,
					"target":{
						"node":4,
						"path":"translation"
					}
				},
				{
					"sampler":10,
					"target":{
						"node":4,
						"path":"rotation"
					}
				},
				{
					"sampler":11,
					"target":{
						"node":4,
						"path":"scale"
					}
				},
				{
					"sampler":12,
					"target":{
						"node":3,
						"path":"translation"
					}
				},
				{
					"sampler":13,
					"target":{
						"node":3,
						"path":"rotation"
					}
				},
				{
					"sampler":14,
					"target":{
						"node":3,
						"path":"scale"
					}
				},
				{
					"sampler":15,
					"target":{
						"node":2,
						"path":"translation"
					}
				},
				{
					"sampler":16,
					"target":{
						"node":2,
						"path":"rotation"
					}
				},
				{
					"sampler":17,
					"target":{
						"node":2,
						"path":"scale"
					}
				},
				{
					"sampler":18,
					"target":{
						"node":1,
						"path":"translation"
					}
				},
				{
					"sampler":19,
					"target":{
						"node":1,
						"path":"rotation"
					}
				},
				{
					"sampler":20,
					"target":{
						"node":1,
						"path":"scale"
					}
				},
				{
					"sampler":21,
					"target":{
						"node":8,
						"path":"translation"
					}
				},
				{
					"sampler":22,
					"target":{
						"node":8,
						"path":"rotation"
					}
				},
				{
					"sampler":23,
					"target":{
						"node":8,
						"path":"scale"
					}
				},
				{
					"sampler":24,
					"target":{
						"node":7,
						"path":"translation"
					}
				},
				{
					"sampler":25,
					"target":{
						"node":7,
						"path":"rotation"
					}
				},
				{
					"sampler":26,
					"target":{
						"node":7,
						"path":"scale"
					}
				},
				{
					"sampler":27,
					"target":{
						"node":6,
						"path":"translation"
					}
				},
				{
					"sampler":28,
					"target":{
						"node":6,
						"path":"rotation"
					}
				},
				{
					"sampler":29,
					"target":{
						"node":6,
						"path":"scale"
					}
				},
				{
					"sampler":30,
					"target":{
						"node":5,
						"path":"translation"
					}
				},
				{
					"sampler":31,
					"target":{
						"node":5,
						"path":"rotation"
					}
				},
				{
					"sampler":32,
					"target":{
						"node":5,
						"path":"scale"
					}
				},
				{
					"sampler":33,
					"target":{
						"node":18,
						"path":"translation"
					}
				},
				{
					"sampler":34,
					"target":{
						"node":18,
						"path":"rotation"
					}
				},
				{
					"sampler":35,
					"target":{
						"node":18,
						"path":"scale"
					}
				},
				{
					"sampler":36,
					"target":{
						"node":17,
						"path":"translation"
					}
				},
				{
					"sampler":37,
					"target":{
						"node":17,
						"path":"rotation"
					}
				},
				{
					"sampler":38,
					"target":{
						"node":17,
						"path":"scale"
					}
				},
				{
					"sampler":39,
					"target":{
						"node":11,
						"path":"translation"
					}
				},
				{
					"sampler":40,
					"target":{
						"node":11,
						"path":"rotation"
					}
				},
				{
					"sampler":41,
					"target":{
						"node":11,
						"path":"scale"
					}
				},
				{
					"sampler":42,
					"target":{
						"node":10,
						"path":"translation"
					}
				},
				{
					"sampler":43,
					"target":{
						"node":10,
						"path":"rotation"
					}
				},
				{
					"sampler":44,
					"target":{
						"node":10,
						"path":"scale"
					}
				},
				{
					"sampler":45,
					"target":{
						"node":9,
						"path":"translation"
					}
				},
				{
					"sampler":46,
					"target":{
						"node":9,
						"path":"rotation"
					}
				},
				{
					"sampler":47,
					"target":{
						"node":9,
						"path":"scale"
					}
				},
				{
					"sampler":48,
					"target":{
						"node":13,
						"path":"translation"
					}
				},
				{
					"sampler":49,
					"target":{
						"node":13,
						"path":"rotation"
					}
				},
				{
					"sampler":50,
					"target":{
						"node":13,
						"path":"scale"
					}
				},
				{
					"sampler":51,
					"target":{
						"node":12,
						"path":"translation"
					}
				},
				{
					"sampler":52,
					"target":{
						"node":12,
						"path":"rotation"
					}
				},
				{
					"sampler":53,
					"target":{
						"node":12,
						"path":"scale"
					}
				},
				{
					"sampler":54,
					"target":{
						"node":16,
						"path":"translation"
					}
				},
				{
					"sampler":55,
					"target":{
						"node":16,
						"path":"rotation"
					}
				},
				{
					"sampler":56,
					"target":{
						"node":16,
						"path":"scale"
					}
				},
				{
					"sampler":57,
					"target":{
						"node":15,
						"path":"translation"
					}
				},
				{
					"sampler":58,
					"target":{
						"node":15,
						"path":"rotation"
					}
				},
				{
					"sampler":59,
					"target":{
						"node":15,
						"path":"scale"
					}
				},
				{
					"sampler":60,
					"target":{
						"node":14,
						"path":"translation"
					}
				},
				{
					"sampler":61,
					"target":{
						"node":14,
						"path":"rotation"
					}
				},
				{
					"sampler":62,
					"target":{
						"node":14,
						"path":"scale"
					}
				},
				{
					"sampler":63,
					"target":{
						"node":21,
						"path":"translation"
					}
				},
				{
					"sampler":64,
					"target":{
						"node":21,
						"path":"rotation"
					}
				},
				{
					"sampler":65,
					"target":{
						"node":21,
						"path":"scale"
					}
				},
				{
					"sampler":66,
					"target":{
						"node":20,
						"path":"translation"
					}
				},
				{
					"sampler":67,
					"target":{
						"node":20,
						"path":"rotation"
					}
				},
				{
					"sampler":68,
					"target":{
						"node":20,
						"path":"scale"
					}
				},
				{
					"sampler":69,
					"target":{
						"node":19,
						"path":"translation"
					}
				},
				{
					"sampler":70,
					"target":{
						"node":19,
						"path":"rotation"
					}
				},
				{
					"sampler":71,
					"target":{
						"node":19,
						"path":"scale"
					}
				}
			],
			"name":"Survey",
			"samplers":[
				{
					"input":82,
					"interpolation":"STEP",
					"output":12
				},
				{
					"input":82,
					"interpolation":"STEP",
					"output":13
				},
				{
					"input":82,
					"interpolation":"STEP",
					"output":14
				},
				{
					"input":82,
					"interpolation":"STEP",
					"output":12
				},
				{
					"input":82,
					"interpolation":"STEP",
					"output":15
				},
				{
					"input":82,
					"interpolation":"STEP",
					"output":14
				},
				{
					"input":83,
					"interpolation":"LINEAR",
					"output":84
				},
				{
					"input":82,
					"interpolation":"STEP",
					"output":85
				},
				{
					"input":82,
					"interpolation":"STEP",
					"output":86
				},
				{
					"input":82,
					"interpolation":"STEP",
					"output":87
				},
				{
					"input":83,
					"interpolation":"LINEAR",
					"output":88
				},
				{
					"input":82,
					"interpolation":"STEP",
					"output":89
				},
				{
					"input":82,
					"interpolation":"STEP",
					"output":90
				},
				{
					"input":83,
					"interpolation":"LINEAR",
					"output":91
				},
				{
					"input":82,
					"interpolation":"STEP",
					"output":14
				},
				{
					"input":82,
					"interpolation":"STEP",
					"output":92
				},
				{
					"input":83,
					"interpolation":"LINEAR",
					"output":93
				},
				{
					"input":82,
					"interpolation":"STEP",
					"output":94
				},
				{
					"input":82,
					"interpolation":"STEP",
					"output":95
				},
				{
					"input":82,
					"interpolation":"STEP",
					"output":96
				},
				{
					"input":82,
					"interpolation":"STEP",
					"output":97
				},
				{
					"input":82,
					"interpolation":"STEP",
					"output":98
				},
				{
					"input":83,
					"interpolation":"LINEAR",
					"output":99
				},
				{
					"input":82,
					"interpolation":"STEP",
					"output":100
				},
				{
					"input":82,
					"interpolation":"STEP",
					"output":101
				},
				{
					"input":83,
					"interpolation":"LINEAR",
					"output":102
				},
				{
					"input":82,
					"interpolation":"STEP",
					"output":14
				},
				{
					"input":82,
					"interpolation":"STEP",
					"output":103
				},
				{
					"input":83,
					"interpolation":"LINEAR",
					"output":104
				},
				{
					"input":82,
					"interpolation":"STEP",
					"output":105
				},
				{
					"input":82,
					"interpolation":"STEP",
					"output":106
				},
				{
					"input":82,
					"interpolation":"STEP",
					"output":107
				},
				{
					"input":82,
					"interpolation":"STEP",
					"output":108
				},
				{
					"input":82,
					"interpolation":"STEP",
					"output":109
				},
				{
					"input":82,
					"interpolation":"STEP",
					"output":110
				},
				{
					"input":82,
					"interpolation":"STEP",
					"output":111
				},
				{
					"input":82,
					"interpolation":"STEP",
					"output":112
				},
				{
					"input":83,
					"interpolation":"LINEAR",
					"output":113
				},
				{
					"input":82,
					"interpolation":"STEP",
					"output":14
				},
				{
					"input":82,
					"interpolation":"STEP",
					"output":114
				},
				{
					"input":83,
					"interpolation":"LINEAR",
					"output":115
				},
				{
					"input":82,
					"interpolation":"STEP",
					"output":116
				},
				{
					"input":82,
					"interpolation":"STEP",
					"output":117
				},
				{
					"input":83,
					"interpolation":"LINEAR",
					"output":118
				},
				{
					"input":82,
					"interpolation":"STEP",
					"output":14
				},
				{
					"input":82,
					"interpolation":"STEP",
					"output":119
				},
				{
					"input":83,
					"interpolation":"LINEAR",
					"output":120
				},
				{
					"input":82,
					"interpolation":"STEP",
					"output":121
				},
				{
					"input":82,
					"interpolation":"STEP",
					"output":122
				},
				{
					"input":83,
					"interpolation":"LINEAR",
					"output":123
				},
				{
					"input":82,
					"interpolation":"STEP",
					"output":14
				},
				{
					"input":82,
					"interpolation":"STEP",
					"output":124
				},
				{
					"input":83,
					"interpolation":"LINEAR",
					"output":125
				},
				{
					"input":82,
					"interpolation":"STEP",
					"output":63
				},
				{
					"input":82,
					"interpolation":"STEP",
					"output":126
				},
				{
					"input":83,
					"interpolation":"LINEAR",
					"output":127
				},
				{
					"input":82,
					"interpolation":"STEP",
					"output":128
				},
				{
					"input":82,
					"interpolation":"STEP",
					"output":129
				},
				{
					"input":83,
					"interpolation":"LINEAR",
					"output":130
				},
				{
					"input":82,
					"interpolation":"STEP",
					"output":121
				},
				{
					"input":82,
					"interpolation":"STEP",
					"output":131
				},
				{
					"input":83,
					"interpolation":"LINEAR",
					"output":132
				},
				{
					"input":82,
					"interpolation":"STEP",
					"output":133
				},
				{
					"input":82,
					"interpolation":"STEP",
					"output":134
				},
				{
					"input":83,
					"interpolation":"LINEAR",
					"output":135
				},
				{
					"input":82,
					"interpolation":"STEP",
					"output":136
				},
				{
					"input":82,
					"interpolation":"STEP",
					"output":137
				},
				{
					"input":83,
					"interpolation":"LINEAR",
					"output":138
				},
				{
					"input":82,
					"interpolation":"STEP",
					"output":139
				},
				{
					"input":82,
					"interpolation":"STEP",
					"output":140
				},
				{
					"input":83,
					"interpolation":"LINEAR",
					"output":141
				},
				{
					"input":82,
					"interpolation":"STEP",
					"output":142
				}
			]
		},
		{
			"channels":[
				{
					"sampler":0,
					"target":{
						"node":24,
						"path":"translation"
					}
				},
				{
					"sampler":1,
					"target":{
						"node":24,
						"path":"rotation"
					}
				},
				{
					"sampler":2,
					"target":{
						"node":24,
						"path":"scale"
					}
				},
				{
					"sampler":3,
					"target":{
						"node":23,
						"path":"translation"
					}
				},
				{
					"sampler":4,
					"target":{
						"node":23,
						"path":"rotation"
					}
				},
				{
					"sampler":5,
					"target":{
						"node":23,
						"path":"scale"
					}
				},
				{
					"sampler":6,
					"target":{
						"node":22,
						"path":"translation"
					}
				},
				{
					"sampler":7,
					"target":{
						"node":22,
						"path":"rotation"
					}
				},
				{
					"sampler":8,
					"target":{
						"node":22,
						"path":"scale"
					}
				},
				{
					"sampler":9,
					"target":{
						"node":4,
						"path":"translation"
					}
				},
				{
					"sampler":10,
					"target":{
						"node":4,
						"path":"rotation"
					}
				},
				{
					"sampler":11,
					"target":{
						"node":4,
						"path":"scale"
					}
				},
				{
					"sampler":12,
					"target":{
						"node":3,
						"path":"translation"
					}
				},
				{
					"sampler":13,
					"target":{
						"node":3,
						"path":"rotation"
					}
				},
				{
					"sampler":14,
					"target":{
						"node":3,
						"path":"scale"
					}
				},
				{
					"sampler":15,
					"target":{
						"node":2,
						"path":"translation"
					}
				},
				{
					"sampler":16,
					"target":{
						"node":2,
						"path":"rotation"
					}
				},
				{
					"sampler":17,
					"target":{
						"node":2,
						"path":"scale"
					}
				},
				{
					"sampler":18,
					"target":{
						"node":1,
						"path":"translation"
					}
				},
				{
					"sampler":19,
					"target":{
						"node":1,
						"path":"rotation"
					}
				},
				{
					"sampler":20,
					"target":{
						"node":1,
						"path":"scale"
					}
				},
				{
					"sampler":21,
					"target":{
						"node":8,
						"path":"translation"
					}
				},
				{
					"sampler":22,
					"target":{
						"node":8,
						"path":"rotation"
					}
				},
				{
					"sampler":23,
					"target":{
						"node":8,
						"path":"scale"
					}
				},
				{
					"sampler":24,
					"target":{
						"node":7,
						"path":"translation"
					}
				},
				{
					"sampler":25,
					"target":{
						"node":7,
						"path":"rotation"
					}
				},
				{
					"sampler":26,
					"target":{
						"node":7,
						"path":"scale"
					}
				},
				{
					"sampler":27,
					"target":{
						"node":6,
						"path":"translation"
					}
				},
				{
					"sampler":28,
					"target":{
						"node":6,
						"path":"rotation"
					}
				},
				{
					"sampler":29,
					"target":{
						"node":6,
						"path":"scale"
					}
				},
				{
					"sampler":30,
					"target":{
						"node":5,
						"path":"translation"
					}
				},
				{
					"sampler":31,
					"target":{
						"node":5,
						"path":"rotation"
					}
				},
				{
					"sampler":32,
					"target":{
						"node":5,
						"path":"scale"
					}
				},
				{
					"sampler":33,
					"target":{
						"node":18,
						"path":"translation"
					}
				},
				{
					"sampler":34,
					"target":{
						"node":18,
						"path":"rotation"
					}
				},
				{
					"sampler":35,
					"target":{
						"node":18,
						"path":"scale"
					}
				},
				{
					"sampler":36,
					"target":{
						"node":17,
						"path":"translation"
					}
				},
				{
					"sampler":37,
					"target":{
						"node":17,
						"path":"rotation"
					}
				},
				{
					"sampler":38,
					"target":{
						"node":17,
						"path":"scale"
					}
				},
				{
					"sampler":39,
					"target":{
						"node":11,
						"path":"translation"
					}
				},
				{
					"sampler":40,
					"target":{
						"node":11,
						"path":"rotation"
					}
				},
				{
					"sampler":41,
					"target":{
						"node":11,
						"path":"scale"
					}
				},
				{
					"sampler":42,
					"target":{
						"node":10,
						"path":"translation"
					}
				},
				{
					"sampler":43,
					"target":{
						"node":10,
						"path":"rotation"
					}
				},
				{
					"sampler":44,
					"target":{
						"node":10,
						"path":"scale"
					}
				},
				{
					"sampler":45,
					"target":{
						"node":9,
						"path":"translation"
					}
				},
				{
					"sampler":46,
					"target":{
						"node":9,
						"path":"rotation"
					}
				},
				{
					"sampler":47,
					"target":{
						"node":9,
						"path":"scale"
					}
				},
				{
					"sampler":48,
					"target":{
						"node":13,
						"path":"translation"
					}
				},
				{
					"sampler":49,
					"target":{
						"node":13,
						"path":"rotation"
					}
				},
				{
					"sampler":50,
					"target":{
						"node":13,
						"path":"scale"
					}
				},
				{
					"sampler":51,
					"target":{
						"node":12,
						"path":"translation"
					}
				},
				{
					"sampler":52,
					"target":{
						"node":12,
						"path":"rotation"
					}
				},
				{
					"sampler":53,
					"target":{
						"node":12,
						"path":"scale"
					}
				},
				{
					"sampler":54,
					"target":{
						"node":16,
						"path":"translation"
					}
				},
				{
					"sampler":55,
					"target":{
						"node":16,
						"path":"rotation"
					}
				},
				{
					"sampler":56,
					"target":{
						"node":16,
						"path":"scale"
					}
				},
				{
					"sampler":57,
					"target":{
						"node":15,
						"path":"translation"
					}
				},
				{
					"sampler":58,
					"target":{
						"node":15,
						"path":"rotation"
					}
				},
				{
					"sampler":59,
					"target":{
						"node":15,
						"path":"scale"
					}
				},
				{
					"sampler":60,
					"target":{
						"node":14,
						"path":"translation"
					}
				},
				{
					"sampler":61,
					"target":{
						"node":14,
						"path":"rotation"
					}
				},
				{
					"sampler":62,
					"target":{
						"node":14,
						"path":"scale"
					}
				},
				{
					"sampler":63,
					"target":{
						"node":21,
						"path":"translation"
					}
				},
				{
					"sampler":64,
					"target":{
						"node":21,
						"path":"rotation"
					}
				},
				{
					"sampler":65,
					"target":{
						"node":21,
						"path":"scale"
					}
				},
				{
					"sampler":66,
					"target":{
						"node":20,
						"path":"translation"
					}
				},
				{
					"sampler":67,
					"target":{
						"node":20,
						"path":"rotation"
					}
				},
				{
					"sampler":68,
					"target":{
						"node":20,
						"path":"scale"
					}
				},
				{
					"sampler":69,
					"target":{
						"node":19,
						"path":"translation"
					}
				},
				{
					"sampler":70,
					"target":{
						"node":19,
						"path":"rotation"
					}
				},
				{
					"sampler":71,
					"target":{
						"node":19,
						"path":"scale"
					}
				}
			],
			"name":"Walk",
			"samplers":[
				{
					"input":143,
					"interpolation":"STEP",
					"output":12
				},
				{
					"input":143,
					"interpolation":"STEP",
					"output":13
				},
				{
					"input":143,
					"interpolation":"STEP",
					"output":14
				},
				{
					"input":143,
					"interpolation":"STEP",
					"output":12
				},
				{
					"input":143,
					"interpolation":"STEP",
					"output":15
				},
				{
					"input":143,
					"interpolation":"STEP",
					"output":14
				},
				{
					"input":144,
					"interpolation":"LINEAR",
					"output":145
				},
				{
					"input":144,
					"interpolation":"LINEAR",
					"output":146
				},
				{
					"input":143,
					"interpolation":"STEP",
					"output":128
				},
				{
					"input":143,
					"interpolation":"STEP",
					"output":147
				},
				{
					"input":144,
					"interpolation":"LINEAR",
					"output":148
				},
				{
					"input":143,
					"interpolation":"STEP",
					"output":149
				},
				{
					"input":143,
					"interpolation":"STEP",
					"output":150
				},
				{
					"input":144,
					"interpolation":"LINEAR",
					"output":151
				},
				{
					"input":143,
					"interpolation":"STEP",
					"output":108
				},
				{
					"input":143,
					"interpolation":"STEP",
					"output":152
				},
				{
					"input":144,
					"interpolation":"LINEAR",
					"output":153
				},
				{
					"input":143,
					"interpolation":"STEP",
					"output":154
				},
				{
					"input":143,
					"interpolation":"STEP",
					"output":155
				},
				{
					"input":143,
					"interpolation":"STEP",
					"output":156
				},
				{
					"input":143,
					"interpolation":"STEP",
					"output":157
				},
				{
					"input":143,
					"interpolation":"STEP",
					"output":158
				},
				{
					"input":144,
					"interpolation":"LINEAR",
					"output":159
				},
				{
					"input":143,
					"interpolation":"STEP",
					"output":160
				},
				{
					"input":143,
					"interpolation":"STEP",
					"output":161
				},
				{
					"input":144,
					"interpolation":"LINEAR",
					"output":162
				},
				{
					"input":143,
					"interpolation":"STEP",
					"output":63
				},
				{
					"input":143,
					"interpolation":"STEP",
					"output":163
				},
				{
					"input":144,
					"interpolation":"LINEAR",
					"output":164
				},
				{
					"input":143,
					"interpolation":"STEP",
					"output":111
				},
				{
					"input":143,
					"interpolation":"STEP",
					"output":165
				},
				{
					"input":143,
					"interpolation":"STEP",
					"output":166
				},
				{
					"input":143,
					"interpolation":"STEP",
					"output":14
				},
				{
					"input":143,
					"interpolation":"STEP",
					"output":167
				},
				{
					"input":144,
					"interpolation":"LINEAR",
					"output":168
				},
				{
					"input":143,
					"interpolation":"STEP",
					"output":14
				},
				{
					"input":143,
					"interpolation":"STEP",
					"output":169
				},
				{
					"input":144,
					"interpolation":"LINEAR",
					"output":170
				},
				{
					"input":143,
					"interpolation":"STEP",
					"output":171
				},
				{
					"input":143,
					"interpolation":"STEP",
					"output":172
				},
				{
					"input":144,
					"interpolation":"LINEAR",
					"output":173
				},
				{
					"input":143,
					"interpolation":"STEP",
					"output":174
				},
				{
					"input":143,
					"interpolation":"STEP",
					"output":175
				},
				{
					"input":144,
					"interpolation":"LINEAR",
					"output":176
				},
				{
					"input":143,
					"interpolation":"STEP",
					"output":177
				},
				{
					"input":143,
					"interpolation":"STEP",
					"output":178
				},
				{
					"input":144,
					"interpolation":"LINEAR",
					"output":179
				},
				{
					"input":143,
					"interpolation":"STEP",
					"output":180
				},
				{
					"input":143,
					"interpolation":"STEP",
					"output":181
				},
				{
					"input":144,
					"interpolation":"LINEAR",
					"output":182
				},
				{
					"input":143,
					"interpolation":"STEP",
					"output":14
				},
				{
					"input":143,
					"interpolation":"STEP",
					"output":183
				},
				{
					"input":144,
					"interpolation":"LINEAR",
					"output":184
				},
				{
					"input":143,
					"interpolation":"STEP",
					"output":94
				},
				{
					"input":143,
					"interpolation":"STEP",
					"output":185
				},
				{
					"input":144,
					"interpolation":"LINEAR",
					"output":186
				},
				{
					"input":143,
					"interpolation":"STEP",
					"output":97
				},
				{
					"input":143,
					"interpolation":"STEP",
					"output":187
				},
				{
					"input":144,
					"interpolation":"LINEAR",
					"output":188
				},
				{
					"input":143,
					"interpolation":"STEP",
					"output":177
				},
				{
					"input":143,
					"interpolation":"STEP",
					"output":189
				},
				{
					"input":144,
					"interpolation":"LINEAR",
					"output":190
				},
				{
					"input":143,
					"interpolation":"STEP",
					"output":121
				},
				{
					"input":143,
					"interpolation":"STEP",
					"output":191
				},
				{
					"input":144,
					"interpolation":"LINEAR",
					"output":192
				},
				{
					"input":143,
					"interpolation":"STEP",
					"output":193
				},
				{
					"input":143,
					"interpolation":"STEP",
					"output":194
				},
				{
					"input":144,
					"interpolation":"LINEAR",
					"output":195
				},
				{
					"input":143,
					"interpolation":"STEP",
					"output":196
				},
				{
					"input":143,
					"interpolation":"STEP",
					"output":197
				},
				{
					"input":144,
					"interpolation":"LINEAR",
					"output":198
				},
				{
					"input":143,
					"interpolation":"STEP",
					"output":199
				}
			]
		}
	],
	"materials":[
		{
			"name":"fox_material",
			"pbrMetallicRoughness":{
				"baseColorTexture":{
					"index":0
				},
				"metallicFactor":0,
				"roughnessFactor":0.5799999833106995
			}
		}
	],
	"meshes":[
		{
			"name":"bunny",
			"primitives":[
				{
					"attributes":{
						"POSITION":0,
						"NORMAL":1,
						"TEXCOORD_0":2
					},
					"indices":3
				}
			]
		},
		{
			"name":"fox1",
			"primitives":[
				{
					"attributes":{
						"POSITION":4,
						"NORMAL":5,
						"TEXCOORD_0":6,
						"JOINTS_0":7,
						"WEIGHTS_0":8
					},
					"indices":9,
					"material":0
				}
			]
		}
	],
	"textures":[
		{
			"sampler":0,
			"source":0
		}
	],
	"images":[
		{
			"mimeType":"image/png",
			"name":"Texture",
			"uri":"Texture.png"
		}
	],
	"skins":[
		{
			"inverseBindMatrices":10,
			"joints":[
				24,
				23,
				22,
				4,
				3,
				2,
				1,
				8,
				7,
				6,
				5,
				18,
				17,
				11,
				10,
				9,
				13,
				12,
				16,
				15,
				14,
				21,
				20,
				19
			],
			"name":"root"
		}
	],
	"accessors":[
		{
			"bufferView":0,
			"componentType":5126,
			"count":72378,
			"max":[
				0.6578999757766724,
				0.6894999742507935,
				-0.020999999716877937
			],
			"min":[
				-0.9559000134468079,
				-0.5429999828338623,
				-1.641800045967102
			],
			"type":"VEC3"
		},
		{
			"bufferView":1,
			"componentType":5126,
			"count":72378,
			"type":"VEC3"
		},
		{
			"bufferView":2,
			"componentType":5126,
			"count":72378,
			"type":"VEC2"
		},
		{
			"bufferView":3,
			"componentType":5125,
			"count":432138,
			"type":"SCALAR"
		},
		{
			"bufferView":4,
			"componentType":5126,
			"count":1728,
			"max":[
				2.220888376235962,
				0.8656464219093323,
				0.07002754509449005
			],
			"min":[
				0.35344773530960083,
				-0.6908273696899414,
				-1.052808165550232
			],
			"type":"VEC3"
		},
		{
			"bufferView":5,
			"componentType":5126,
			"count":1728,
			"type":"VEC3"
		},
		{
			"bufferView":6,
			"componentType":5126,
			"count":1728,
			"type":"VEC2"
		},
		{
			"bufferView":7,
			"componentType":5121,
			"count":1728,
			"type":"VEC4"
		},
		{
			"bufferView":8,
			"componentType":5126,
			"count":1728,
			"type":"VEC4"
		},
		{
			"bufferView":9,
			"componentType":5123,
			"count":1728,
			"type":"SCALAR"
		},
		{
			"bufferView":10,
			"componentType":5126,
			"count":24,
			"type":"MAT4"
		},
		{
			"bufferView":11,
			"componentType":5126,
			"count":2,
			"max":[
				1.125
			],
			"min":[
				0
			],
			"type":"SCALAR"
		},
		{
			"bufferView":12,
			"componentType":5126,
			"count":2,
			"type":"VEC3"
		},
		{
			"bufferView":13,
			"componentType":5126,
			"count":2,
			"type":"VEC4"
		},
		{
			"bufferView":14,
			"componentType":5126,
			"count":2,
			"type":"VEC3"
		},
		{
			"bufferView":15,
			"componentType":5126,
			"count":2,
			"type":"VEC4"
		},
		{
			"bufferView":16,
			"componentType":5126,
			"count":28,
			"max":[
				1.125
			],
			"min":[
				0
			],
			"type":"SCALAR"
		},
		{
			"bufferView":17,
			"componentType":5126,
			"count":28,
			"type":"VEC3"
		},
		{
			"bufferView":18,
			"componentType":5126,
			"count":28,
			"type":"VEC4"
		},
		{
			"bufferView":19,
			"componentType":5126,
			"count":2,
			"type":"VEC3"
		},
		{
			"bufferView":20,
			"componentType":5126,
			"count":2,
			"type":"VEC3"
		},
		{
			"bufferView":21,
			"componentType":5126,
			"count":28,
			"type":"VEC4"
		},
		{
			"bufferView":22,
			"componentType":5126,
			"count":2,
			"type":"VEC3"
		},
		{
			"bufferView":23,
			"componentType":5126,
			"count":2,
			"type":"VEC3"
		},
		{
			"bufferView":24,
			"componentType":5126,
			"count":28,
			"type":"VEC4"
		},
		{
			"bufferView":25,
			"componentType":5126,
			"count":2,
			"type":"VEC3"
		},
		{
			"bufferView":26,
			"componentType":5126,
			"count":2,
			"type":"VEC3"
		},
		{
			"bufferView":27,
			"componentType":5126,
			"count":28,
			"type":"VEC4"
		},
		{
			"bufferView":28,
			"componentType":5126,
			"count":2,
			"type":"VEC3"
		},
		{
			"bufferView":29,
			"componentType":5126,
			"count":2,
			"type":"VEC3"
		},
		{
			"bufferView":30,
			"componentType":5126,
			"count":2,
			"type":"VEC4"
		},
		{
			"bufferView":31,
			"componentType":5126,
			"count":2,
			"type":"VEC3"
		},
		{
			"bufferView":32,
			"componentType":5126,
			"count":2,
			"type":"VEC3"
		},
		{
			"bufferView":33,
			"componentType":5126,
			"count":28,
			"type":"VEC4"
		},
		{
			"bufferView":34,
			"componentType":5126,
			"count":2,
			"type":"VEC3"
		},
		{
			"bufferView":35,
			"componentType":5126,
			"count":2,
			"type":"VEC3"
		},
		{
			"bufferView":36,
			"componentType":5126,
			"count":28,
			"type":"VEC4"
		},
		{
			"bufferView":37,
			"componentType":5126,
			"count":2,
			"type":"VEC3"
		},
		{
			"bufferView":38,
			"componentType":5126,
			"count":2,
			"type":"VEC3"
		},
		{
			"bufferView":39,
			"componentType":5126,
			"count":28,
			"type":"VEC4"
		},
		{
			"bufferView":40,
			"componentType":5126,
			"count":2,
			"type":"VEC3"
		},
		{
			"bufferView":41,
			"componentType":5126,
			"count":2,
			"type":"VEC3"
		},
		{
			"bufferView":42,
			"componentType":5126,
			"count":2,
			"type":"VEC4"
		},
		{
			"bufferView":43,
			"componentType":5126,
			"count":2,
			"type":"VEC3"
		},
		{
			"bufferView":44,
			"componentType":5126,
			"count":28,
			"type":"VEC4"
		},
		{
			"bufferView":45,
			"componentType":5126,
			"count":2,
			"type":"VEC3"
		},
		{
			"bufferView":46,
			"componentType":5126,
			"count":2,
			"type":"VEC3"
		},
		{
			"bufferView":47,
			"componentType":5126,
			"count":28,
			"type":"VEC4"
		},
		{
			"bufferView":48,
			"componentType":5126,
			"count":2,
			"type":"VEC3"
		},
		{
			"bufferView":49,
			"componentType":5126,
			"count":2,
			"type":"VEC3"
		},
		{
			"bufferView":50,
			"componentType":5126,
			"count":28,
			"type":"VEC4"
		},
		{
			"bufferView":51,
			"componentType":5126,
			"count":2,
			"type":"VEC3"
		},
		{
			"bufferView":52,
			"componentType":5126,
			"count":2,
			"type":"VEC3"
		},
		{
			"bufferView":53,
			"componentType":5126,
			"count":28,
			"type":"VEC4"
		},
		{
			"bufferView":54,
			"componentType":5126,
			"count":2,
			"type":"VEC3"
		},
		{
			"bufferView":55,
			"componentType":5126,
			"count":2,
			"type":"VEC3"
		},
		{
			"bufferView":56,
			"componentType":5126,
			"count":28,
			"type":"VEC4"
		},
		{
			"bufferView":57,
			"componentType":5126,
			"count":2,
			"type":"VEC3"
		},
		{
			"bufferView":58,
			"componentType":5126,
			"count":2,
			"type":"VEC3"
		},
		{
			"bufferView":59,
			"componentType":5126,
			"count":28,
			"type":"VEC4"
		},
		{
			"bufferView":60,
			"componentType":5126,
			"count":2,
			"type":"VEC3"
		},
		{
			"bufferView":61,
			"componentType":5126,
			"count":2,
			"type":"VEC3"
		},
		{
			"bufferView":62,
			"componentType":5126,
			"count":28,
			"type":"VEC4"
		},
		{
			"bufferView":63,
			"componentType":5126,
			"count":2,
			"type":"VEC3"
		},
		{
			"bufferView":64,
			"componentType":5126,
			"count":2,
			"type":"VEC3"
		},
		{
			"bufferView":65,
			"componentType":5126,
			"count":28,
			"type":"VEC4"
		},
		{
			"bufferView":66,
			"componentType":5126,
			"count":2,
			"type":"VEC3"
		},
		{
			"bufferView":67,
			"componentType":5126,
			"count":2,
			"type":"VEC3"
		},
		{
			"bufferView":68,
			"componentType":5126,
			"count":28,
			"type":"VEC4"
		},
		{
			"bufferView":69,
			"componentType":5126,
			"count":2,
			"type":"VEC3"
		},
		{
			"bufferView":70,
			"componentType":5126,
			"count":2,
			"type":"VEC3"
		},
		{
			"bufferView":71,
			"componentType":5126,
			"count":28,
			"type":"VEC4"
		},
		{
			"bufferView":72,
			"componentType":5126,
			"count":2,
			"type":"VEC3"
		},
		{
			"bufferView":73,
			"componentType":5126,
			"count":2,
			"type":"VEC3"
		},
		{
			"bufferView":74,
			"componentType":5126,
			"count":28,
			"type":"VEC4"
		},
		{
			"bufferView":75,
			"componentType":5126,
			"count":2,
			"type":"VEC3"
		},
		{
			"bufferView":76,
			"componentType":5126,
			"count":2,
			"type":"VEC3"
		},
		{
			"bufferView":77,
			"componentType":5126,
			"count":28,
			"type":"VEC4"
		},
		{
			"bufferView":78,
			"componentType":5126,
			"count":2,
			"type":"VEC3"
		},
		{
			"bufferView":79,
			"componentType":5126,
			"count":2,
			"type":"VEC3"
		},
		{
			"bufferView":80,
			"componentType":5126,
			"count":28,
			"type":"VEC4"
		},
		{
			"bufferView":81,
			"componentType":5126,
			"count":2,
			"type":"VEC3"
		},
		{
			"bufferView":82,
			"componentType":5126,
			"count":2,
			"max":[
				3.4166666666666665
			],
			"min":[
				0
			],
			"type":"SCALAR"
		},
		{
			"bufferView":83,
			"componentType":5126,
			"count":83,
			"max":[
				3.4166666666666665
			],
			"min":[
				0
			],
			"type":"SCALAR"
		},
		{
			"bufferView":84,
			"componentType":5126,
			"count":83,
			"type":"VEC3"
		},
		{
			"bufferView":85,
			"componentType":5126,
			"count":2,
			"type":"VEC4"
		},
		{
			"bufferView":86,
			"componentType":5126,
			"count":2,
			"type":"VEC3"
		},
		{
			"bufferView":87,
			"componentType":5126,
			"count":2,
			"type":"VEC3"
		},
		{
			"bufferView":88,
			"componentType":5126,
			"count":83,
			"type":"VEC4"
		},
		{
			"bufferView":89,
			"componentType":5126,
			"count":2,
			"type":"VEC3"
		},
		{
			"bufferView":90,
			"componentType":5126,
			"count":2,
			"type":"VEC3"
		},
		{
			"bufferView":91,
			"componentType":5126,
			"count":83,
			"type":"VEC4"
		},
		{
			"bufferView":92,
			"componentType":5126,
			"count":2,
			"type":"VEC3"
		},
		{
			"bufferView":93,
			"componentType":5126,
			"count":83,
			"type":"VEC4"
		},
		{
			"bufferView":94,
			"componentType":5126,
			"count":2,
			"type":"VEC3"
		},
		{
			"bufferView":95,
			"componentType":5126,
			"count":2,
			"type":"VEC3"
		},
		{
			"bufferView":96,
			"componentType":5126,
			"count":2,
			"type":"VEC4"
		},
		{
			"bufferView":97,
			"componentType":5126,
			"count":2,
			"type":"VEC3"
		},
		{
			"bufferView":98,
			"componentType":5126,
			"count":2,
			"type":"VEC3"
		},
		{
			"bufferView":99,
			"componentType":5126,
			"count":83,
			"type":"VEC4"
		},
		{
			"bufferView":100,
			"componentType":5126,
			"count":2,
			"type":"VEC3"
		},
		{
			"bufferView":101,
			"componentType":5126,
			"count":2,
			"type":"VEC3"
		},
		{
			"bufferView":102,
			"componentType":5126,
			"count":83,
			"type":"VEC4"
		},
		{
			"bufferView":103,
			"componentType":5126,
			"count":2,
			"type":"VEC3"
		},
		{
			"bufferView":104,
			"componentType":5126,
			"count":83,
			"type":"VEC4"
		},
		{
			"bufferView":105,
			"componentType":5126,
			"count":2,
			"type":"VEC3"
		},
		{
			"bufferView":106,
			"componentType":5126,
			"count":2,
			"type":"VEC3"
		},
		{
			"bufferView":107,
			"componentType":5126,
			"count":2,
			"type":"VEC4"
		},
		{
			"bufferView":108,
			"componentType":5126,
			"count":2,
			"type":"VEC3"
		},
		{
			"bufferView":109,
			"componentType":5126,
			"count":2,
			"type":"VEC3"
		},
		{
			"bufferView":110,
			"componentType":5126,
			"count":2,
			"type":"VEC4"
		},
		{
			"bufferView":111,
			"componentType":5126,
			"count":2,
			"type":"VEC3"
		},
		{
			"bufferView":112,
			"componentType":5126,
			"count":2,
			"type":"VEC3"
		},
		{
			"bufferView":113,
			"componentType":5126,
			"count":83,
			"type":"VEC4"
		},
		{
			"bufferView":114,
			"componentType":5126,
			"count":2,
			"type":"VEC3"
		},
		{
			"bufferView":115,
			"componentType":5126,
			"count":83,
			"type":"VEC4"
		},
		{
			"bufferView":116,
			"componentType":5126,
			"count":2,
			"type":"VEC3"
		},
		{
			"bufferView":117,
			"componentType":5126,
			"count":2,
			"type":"VEC3"
		},
		{
			"bufferView":118,
			"componentType":5126,
			"count":83,
			"type":"VEC4"
		},
		{
			"bufferView":119,
			"componentType":5126,
			"count":2,
			"type":"VEC3"
		},
		{
			"bufferView":120,
			"componentType":5126,
			"count":83,
			"type":"VEC4"
		},
		{
			"bufferView":121,
			"componentType":5126,
			"count":2,
			"type":"VEC3"
		},
		{
			"bufferView":122,
			"componentType":5126,
			"count":2,
			"type":"VEC3"
		},
		{
			"bufferView":123,
			"componentType":5126,
			"count":83,
			"type":"VEC4"
		},
		{
			"bufferView":124,
			"componentType":5126,
			"count":2,
			"type":"VEC3"
		},
		{
			"bufferView":125,
			"componentType":5126,
			"count":83,
			"type":"VEC4"
		},
		{
			"bufferView":126,
			"componentType":5126,
			"count":2,
			"type":"VEC3"
		},
		{
			"bufferView":127,
			"componentType":5126,
			"count":83,
			"type":"VEC4"
		},
		{
			"bufferView":128,
			"componentType":5126,
			"count":2,
			"type":"VEC3"
		},
		{
			"bufferView":129,
			"componentType":5126,
			"count":2,
			"type":"VEC3"
		},
		{
			"bufferView":130,
			"componentType":5126,
			"count":83,
			"type":"VEC4"
		},
		{
			"bufferView":131,
			"componentType":5126,
			"count":2,
			"type":"VEC3"
		},
		{
			"bufferView":132,
			"componentType":5126,
			"count":83,
			"type":"VEC4"
		},
		{
			"bufferView":133,
			"componentType":5126,
			"count":2,
			"type":"VEC3"
		},
		{
			"bufferView":134,
			"componentType":5126,
			"count":2,
			"type":"VEC3"
		},
		{
			"bufferView":135,
			"componentType":5126,
			"count":83,
			"type":"VEC4"
		},
		{
			"bufferView":136,
			"componentType":5126,
			"count":2,
			"type":"VEC3"
		},
		{
			"bufferView":137,
			"componentType":5126,
			"count":2,
			"type":"VEC3"
		},
		{
			"bufferView":138,
			"componentType":5126,
			"count":83,
			"type":"VEC4"
		},
		{
			"bufferView":139,
			"componentType":5126,
			"count":2,
			"type":"VEC3"
		},
		{
			"bufferView":140,
			"componentType":5126,
			"count":2,
			"type":"VEC3"
		},
		{
			"bufferView":141,
			"componentType":5126,
			"count":83,
			"type":"VEC4"
		},
		{
			"bufferView":142,
			"componentType":5126,
			"count":2,
			"type":"VEC3"
		},
		{
			"bufferView":143,
			"componentType":5126,
			"count":2,
			"max":[
				0.7083333333333334
			],
			"min":[
				0
			],
			"type":"SCALAR"
		},
		{
			"bufferView":144,
			"componentType":5126,
			"count":18,
			"max":[
				0.7083333333333334
			],
			"min":[
				0
			],
			"type":"SCALAR"
		},
		{
			"bufferView":145,
			"componentType":5126,
			"count":18,
			"type":"VEC3"
		},
		{
			"bufferView":146,
			"componentType":5126,
			"count":18,
			"type":"VEC4"
		},
		{
			"bufferView":147,
			"componentType":5126,
			"count":2,
			"type":"VEC3"
		},
		{
			"bufferView":148,
			"componentType":5126,
			"count":18,
			"type":"VEC4"
		},
		{
			"bufferView":149,
			"componentType":5126,
			"count":2,
			"type":"VEC3"
		},
		{
			"bufferView":150,
			"componentType":5126,
			"count":2,
			"type":"VEC3"
		},
		{
			"bufferView":151,
			"componentType":5126,
			"count":18,
			"type":"VEC4"
		},
		{
			"bufferView":152,
			"componentType":5126,
			"count":2,
			"type":"VEC3"
		},
		{
			"bufferView":153,
			"componentType":5126,
			"count":18,
			"type":"VEC4"
		},
		{
			"bufferView":154,
			"componentType":5126,
			"count":2,
			"type":"VEC3"
		},
		{
			"bufferView":155,
			"componentType":5126,
			"count":2,
			"type":"VEC3"
		},
		{
			"bufferView":156,
			"componentType":5126,
			"count":2,
			"type":"VEC4"
		},
		{
			"bufferView":157,
			"componentType":5126,
			"count":2,
			"type":"VEC3"
		},
		{
			"bufferView":158,
			"componentType":5126,
			"count":2,
			"type":"VEC3"
		},
		{
			"bufferView":159,
			"componentType":5126,
			"count":18,
			"type":"VEC4"
		},
		{
			"bufferView":160,
			"componentType":5126,
			"count":2,
			"type":"VEC3"
		},
		{
			"bufferView":161,
			"componentType":5126,
			"count":2,
			"type":"VEC3"
		},
		{
			"bufferView":162,
			"componentType":5126,
			"count":18,
			"type":"VEC4"
		},
		{
			"bufferView":163,
			"componentType":5126,
			"count":2,
			"type":"VEC3"
		},
		{
			"bufferView":164,
			"componentType":5126,
			"count":18,
			"type":"VEC4"
		},
		{
			"bufferView":165,
			"componentType":5126,
			"count":2,
			"type":"VEC3"
		},
		{
			"bufferView":166,
			"componentType":5126,
			"count":2,
			"type":"VEC4"
		},
		{
			"bufferView":167,
			"componentType":5126,
			"count":2,
			"type":"VEC3"
		},
		{
			"bufferView":168,
			"componentType":5126,
			"count":18,
			"type":"VEC4"
		},
		{
			"bufferView":169,
			"componentType":5126,
			"count":2,
			"type":"VEC3"
		},
		{
			"bufferView":170,
			"componentType":5126,
			"count":18,
			"type":"VEC4"
		},
		{
			"bufferView":171,
			"componentType":5126,
			"count":2,
			"type":"VEC3"
		},
		{
			"bufferView":172,
			"componentType":5126,
			"count":2,
			"type":"VEC3"
		},
		{
			"bufferView":173,
			"componentType":5126,
			"count":18,
			"type":"VEC4"
		},
		{
			"bufferView":174,
			"componentType":5126,
			"count":2,
			"type":"VEC3"
		},
		{
			"bufferView":175,
			"componentType":5126,
			"count":2,
			"type":"VEC3"
		},
		{
			"bufferView":176,
			"componentType":5126,
			"count":18,
			"type":"VEC4"
		},
		{
			"bufferView":177,
			"componentType":5126,
			"count":2,
			"type":"VEC3"
		},
		{
			"bufferView":178,
			"componentType":5126,
			"count":2,
			"type":"VEC3"
		},
		{
			"bufferView":179,
			"componentType":5126,
			"count":18,
			"type":"VEC4"
		},
		{
			"bufferView":180,
			"componentType":5126,
			"count":2,
			"type":"VEC3"
		},
		{
			"bufferView":181,
			"componentType":5126,
			"count":2,
			"type":"VEC3"
		},
		{
			"bufferView":182,
			"componentType":5126,
			"count":18,
			"type":"VEC4"
		},
		{
			"bufferView":183,
			"componentType":5126,
			"count":2,
			"type":"VEC3"
		},
		{
			"bufferView":184,
			"componentType":5126,
			"count":18,
			"type":"VEC4"
		},
		{
			"bufferView":185,
			"componentType":5126,
			"count":2,
			"type":"VEC3"
		},
		{
			"bufferView":186,
			"componentType":5126,
			"count":18,
			"type":"VEC4"
		},
		{
			"bufferView":187,
			"componentType":5126,
			"count":2,
			"type":"VEC3"
		},
		{
			"bufferView":188,
			"componentType":5126,
			"count":18,
			"type":"VEC4"
		},
		{
			"bufferView":189,
			"componentType":5126,
			"count":2,
			"type":"VEC3"
		},
		{
			"bufferView":190,
			"componentType":5126,
			"count":18,
			"type":"VEC4"
		},
		{
			"bufferView":191,
			"componentType":5126,
			"count":2,
			"type":"VEC3"
		},
		{
			"bufferView":192,
			"componentType":5126,
			"count":18,
			"type":"VEC4"
		},
		{
			"bufferView":193,
			"componentType":5126,
			"count":2,
			"type":"VEC3"
		},
		{
			"bufferView":194,
			"componentType":5126,
			"count":2,
			"type":"VEC3"
		},
		{
			"bufferView":195,
			"componentType":5126,
			"count":18,
			"type":"VEC4"
		},
		{
			"bufferView":196,
			"componentType":5126,
			"count":2,
			"type":"VEC3"
		},
		{
			"bufferView":197,
			"componentType":5126,
			"count":2,
			"type":"VEC3"
		},
		{
			"bufferView":198,
			"componentType":5126,
			"count":18,
			"type":"VEC4"
		},
		{
			"bufferView":199,
			"componentType":5126,
			"count":2,
			"type":"VEC3"
		}
	],
	"bufferViews":[
		{
			"buffer":0,
			"byteLength":868536,
			"byteOffset":0,
			"target":34962
		},
		{
			"buffer":0,
			"byteLength":868536,
			"byteOffset":868536,
			"target":34962
		},
		{
			"buffer":0,
			"byteLength":579024,
			"byteOffset":1737072,
			"target":34962
		},
		{
			"buffer":0,
			"byteLength":1728552,
			"byteOffset":2316096,
			"target":34963
		},
		{
			"buffer":0,
			"byteLength":20736,
			"byteOffset":4044648,
			"target":34962
		},
		{
			"buffer":0,
			"byteLength":20736,
			"byteOffset":4065384,
			"target":34962
		},
		{
			"buffer":0,
			"byteLength":13824,
			"byteOffset":4086120,
			"target":34962
		},
		{
			"buffer":0,
			"byteLength":6912,
			"byteOffset":4099944,
			"target":34962
		},
		{
			"buffer":0,
			"byteLength":27648,
			"byteOffset":4106856,
			"target":34962
		},
		{
			"buffer":0,
			"byteLength":3456,
			"byteOffset":4134504,
			"target":34963
		},
		{
			"buffer":0,
			"byteLength":1536,
			"byteOffset":4137960
		},
		{
			"buffer":0,
			"byteLength":8,
			"byteOffset":4139496
		},
		{
			"buffer":0,
			"byteLength":24,
			"byteOffset":4139504
		},
		{
			"buffer":0,
			"byteLength":32,
			"byteOffset":4139528
		},
		{
			"buffer":0,
			"byteLength":24,
			"byteOffset":4139560
		},
		{
			"buffer":0,
			"byteLength":32,
			"byteOffset":4139584
		},
		{
			"buffer":0,
			"byteLength":112,
			"byteOffset":4139616
		},
		{
			"buffer":0,
			"byteLength":336,
			"byteOffset":4139728
		},
		{
			"buffer":0,
			"byteLength":448,
			"byteOffset":4140064
		},
		{
			"buffer":0,
			"byteLength":24,
			"byteOffset":4140512
		},
		{
			"buffer":0,
			"byteLength":24,
			"byteOffset":4140536
		},
		{
			"buffer":0,
			"byteLength":448,
			"byteOffset":4140560
		},
		{
			"buffer":0,
			"byteLength":24,
			"byteOffset":4141008
		},
		{
			"buffer":0,
			"byteLength":24,
			"byteOffset":4141032
		},
		{
			"buffer":0,
			"byteLength":448,
			"byteOffset":4141056
		},
		{
			"buffer":0,
			"byteLength":24,
			"byteOffset":4141504
		},
		{
			"buffer":0,
			"byteLength":24,
			"byteOffset":4141528
		},
		{
			"buffer":0,
			"byteLength":448,
			"byteOffset":4141552
		},
		{
			"buffer":0,
			"byteLength":24,
			"byteOffset":4142000
		},
		{
			"buffer":0,
			"byteLength":24,
			"byteOffset":4142024
		},
		{
			"buffer":0,
			"byteLength":32,
			"byteOffset":4142048
		},
		{
			"buffer":0,
			"byteLength":24,
			"byteOffset":4142080
		},
		{
			"buffer":0,
			"byteLength":24,
			"byteOffset":4142104
		},
		{
			"buffer":0,
			"byteLength":448,
			"byteOffset":4142128
		},
		{
			"buffer":0,
			"byteLength":24,
			"byteOffset":4142576
		},
		{
			"buffer":0,
			"byteLength":24,
			"byteOffset":4142600
		},
		{
			"buffer":0,
			"byteLength":448,
			"byteOffset":4142624
		},
		{
			"buffer":0,
			"byteLength":24,
			"byteOffset":4143072
		},
		{
			"buffer":0,
			"byteLength":24,
			"byteOffset":4143096
		},
		{
			"buffer":0,
			"byteLength":448,
			"byteOffset":4143120
		},
		{
			"buffer":0,
			"byteLength":24,
			"byteOffset":4143568
		},
		{
			"buffer":0,
			"byteLength":24,
			"byteOffset":4143592
		},
		{
			"buffer":0,
			"byteLength":32,
			"byteOffset":4143616
		},
		{
			"buffer":0,
			"byteLength":24,
			"byteOffset":4143648
		},
		{
			"buffer":0,
			"byteLength":448,
			"byteOffset":4143672
		},
		{
			"buffer":0,
			"byteLength":24,
			"byteOffset":4144120
		},
		{
			"buffer":0,
			"byteLength":24,
			"byteOffset":4144144
		},
		{
			"buffer":0,
			"byteLength":448,
			"byteOffset":4144168
		},
		{
			"buffer":0,
			"byteLength":24,
			"byteOffset":4144616
		},
		{
			"buffer":0,
			"byteLength":24,
			"byteOffset":4144640
		},
		{
			"buffer":0,
			"byteLength":448,
			"byteOffset":4144664
		},
		{
			"buffer":0,
			"byteLength":24,
			"byteOffset":4145112
		},
		{
			"buffer":0,
			"byteLength":24,
			"byteOffset":4145136
		},
		{
			"buffer":0,
			"byteLength":448,
			"byteOffset":4145160
		},
		{
			"buffer":0,
			"byteLength":24,
			"byteOffset":4145608
		},
		{
			"buffer":0,
			"byteLength":24,
			"byteOffset":4145632
		},
		{
			"buffer":0,
			"byteLength":448,
			"byteOffset":4145656
		},
		{
			"buffer":0,
			"byteLength":24,
			"byteOffset":4146104
		},
		{
			"buffer":0,
			"byteLength":24,
			"byteOffset":4146128
		},
		{
			"buffer":0,
			"byteLength":448,
			"byteOffset":4146152
		},
		{
			"buffer":0,
			"byteLength":24,
			"byteOffset":4146600
		},
		{
			"buffer":0,
			"byteLength":24,
			"byteOffset":4146624
		},
		{
			"buffer":0,
			"byteLength":448,
			"byteOffset":4146648
		},
		{
			"buffer":0,
			"byteLength":24,
			"byteOffset":4147096
		},
		{
			"buffer":0,
			"byteLength":24,
			"byteOffset":4147120
		},
		{
			"buffer":0,
			"byteLength":448,
			"byteOffset":4147144
		},
		{
			"buffer":0,
			"byteLength":24,
			"byteOffset":4147592
		},
		{
			"buffer":0,
			"byteLength":24,
			"byteOffset":4147616
		},
		{
			"buffer":0,
			"byteLength":448,
			"byteOffset":4147640
		},
		{
			"buffer":0,
			"byteLength":24,
			"byteOffset":4148088
		},
		{
			"buffer":0,
			"byteLength":24,
			"byteOffset":4148112
		},
		{
			"buffer":0,
			"byteLength":448,
			"byteOffset":4148136
		},
		{
			"buffer":0,
			"byteLength":24,
			"byteOffset":4148584
		},
		{
			"buffer":0,
			"byteLength":24,
			"byteOffset":4148608
		},
		{
			"buffer":0,
			"byteLength":448,
			"byteOffset":4148632
		},
		{
			"buffer":0,
			"byteLength":24,
			"byteOffset":4149080
		},
		{
			"buffer":0,
			"byteLength":24,
			"byteOffset":4149104
		},
		{
			"buffer":0,
			"byteLength":448,
			"byteOffset":4149128
		},
		{
			"buffer":0,
			"byteLength":24,
			"byteOffset":4149576
		},
		{
			"buffer":0,
			"byteLength":24,
			"byteOffset":4149600
		},
		{
			"buffer":0,
			"byteLength":448,
			"byteOffset":4149624
		},
		{
			"buffer":0,
			"byteLength":24,
			"byteOffset":4150072
		},
		{
			"buffer":0,
			"byteLength":8,
			"byteOffset":4150096
		},
		{
			"buffer":0,
			"byteLength":332,
			"byteOffset":4150104
		},
		{
			"buffer":0,
			"byteLength":996,
			"byteOffset":4150436
		},
		{
			"buffer":0,
			"byteLength":32,
			"byteOffset":4151432
		},
		{
			"buffer":0,
			"byteLength":24,
			"byteOffset":4151464
		},
		{
			"buffer":0,
			"byteLength":24,
			"byteOffset":4151488
		},
		{
			"buffer":0,
			"byteLength":1328,
			"byteOffset":4151512
		},
		{
			"buffer":0,
			"byteLength":24,
			"byteOffset":4152840
		},
		{
			"buffer":0,
			"byteLength":24,
			"byteOffset":4152864
		},
		{
			"buffer":0,
			"byteLength":1328,
			"byteOffset":4152888
		},
		{
			"buffer":0,
			"byteLength":24,
			"byteOffset":4154216
		},
		{
			"buffer":0,
			"byteLength":1328,
			"byteOffset":4154240
		},
		{
			"buffer":0,
			"byteLength":24,
			"byteOffset":4155568
		},
		{
			"buffer":0,
			"byteLength":24,
			"byteOffset":4155592
		},
		{
			"buffer":0,
			"byteLength":32,
			"byteOffset":4155616
		},
		{
			"buffer":0,
			"byteLength":24,
			"byteOffset":4155648
		},
		{
			"buffer":0,
			"byteLength":24,
			"byteOffset":4155672
		},
		{
			"buffer":0,
			"byteLength":1328,
			"byteOffset":4155696
		},
		{
			"buffer":0,
			"byteLength":24,
			"byteOffset":4157024
		},
		{
			"buffer":0,
			"byteLength":24,
			"byteOffset":4157048
		},
		{
			"buffer":0,
			"byteLength":1328,
			"byteOffset":4157072
		},
		{
			"buffer":0,
			"byteLength":24,
			"byteOffset":4158400
		},
		{
			"buffer":0,
			"byteLength":1328,
			"byteOffset":4158424
		},
		{
			"buffer":0,
			"byteLength":24,
			"byteOffset":4159752
		},
		{
			"buffer":0,
			"byteLength":24,
			"byteOffset":4159776
		},
		{
			"buffer":0,
			"byteLength":32,
			"byteOffset":4159800
		},
		{
			"buffer":0,
			"byteLength":24,
			"byteOffset":4159832
		},
		{
			"buffer":0,
			"byteLength":24,
			"byteOffset":4159856
		},
		{
			"buffer":0,
			"byteLength":32,
			"byteOffset":4159880
		},
		{
			"buffer":0,
			"byteLength":24,
			"byteOffset":4159912
		},
		{
			"buffer":0,
			"byteLength":24,
			"byteOffset":4159936
		},
		{
			"buffer":0,
			"byteLength":1328,
			"byteOffset":4159960
		},
		{
			"buffer":0,
			"byteLength":24,
			"byteOffset":4161288
		},
		{
			"buffer":0,
			"byteLength":1328,
			"byteOffset":4161312
		},
		{
			"buffer":0,
			"byteLength":24,
			"byteOffset":4162640
		},
		{
			"buffer":0,
			"byteLength":24,
			"byteOffset":4162664
		},
		{
			"buffer":0,
			"byteLength":1328,
			"byteOffset":4162688
		},
		{
			"buffer":0,
			"byteLength":24,
			"byteOffset":4164016
		},
		{
			"buffer":0,
			"byteLength":1328,
			"byteOffset":4164040
		},
		{
			"buffer":0,
			"byteLength":24,
			"byteOffset":4165368
		},
		{
			"buffer":0,
			"byteLength":24,
			"byteOffset":4165392
		},
		{
			"buffer":0,
			"byteLength":1328,
			"byteOffset":4165416
		},
		{
			"buffer":0,
			"byteLength":24,
			"byteOffset":4166744
		},
		{
			"buffer":0,
			"byteLength":1328,
			"byteOffset":4166768
		},
		{
			"buffer":0,
			"byteLength":24,
			"byteOffset":4168096
		},
		{
			"buffer":0,
			"byteLength":1328,
			"byteOffset":4168120
		},
		{
			"buffer":0,
			"byteLength":24,
			"byteOffset":4169448
		},
		{
			"buffer":0,
			"byteLength":24,
			"byteOffset":4169472
		},
		{
			"buffer":0,
			"byteLength":1328,
			"byteOffset":4169496
		},
		{
			"buffer":0,
			"byteLength":24,
			"byteOffset":4170824
		},
		{
			"buffer":0,
			"byteLength":1328,
			"byteOffset":4170848
		},
		{
			"buffer":0,
			"byteLength":24,
			"byteOffset":4172176
		},
		{
			"buffer":0,
			"byteLength":24,
			"byteOffset":4172200
		},
		{
			"buffer":0,
			"byteLength":1328,
			"byteOffset":4172224
		},
		{
			"buffer":0,
			"byteLength":24,
			"byteOffset":4173552
		},
		{
			"buffer":0,
			"byteLength":24,
			"byteOffset":4173576
		},
		{
			"buffer":0,
			"byteLength":1328,
			"byteOffset":4173600
		},
		{
			"buffer":0,
			"byteLength":24,
			"byteOffset":4174928
		},
		{
			"buffer":0,
			"byteLength":24,
			"byteOffset":4174952
		},
		{
			"buffer":0,
			"byteLength":1328,
			"byteOffset":4174976
		},
		{
			"buffer":0,
			"byteLength":24,
			"byteOffset":4176304
		},
		{
			"buffer":0,
			"byteLength":8,
			"byteOffset":4176328
		},
		{
			"buffer":0,
			"byteLength":72,
			"byteOffset":4176336
		},
		{
			"buffer":0,
			"byteLength":216,
			"byteOffset":4176408
		},
		{
			"buffer":0,
			"byteLength":288,
			"byteOffset":4176624
		},
		{
			"buffer":0,
			"byteLength":24,
			"byteOffset":4176912
		},
		{
			"buffer":0,
			"byteLength":288,
			"byteOffset":4176936
		},
		{
			"buffer":0,
			"byteLength":24,
			"byteOffset":4177224
		},
		{
			"buffer":0,
			"byteLength":24,
			"byteOffset":4177248
		},
		{
			"buffer":0,
			"byteLength":288,
			"byteOffset":4177272
		},
		{
			"buffer":0,
			"byteLength":24,
			"byteOffset":4177560
		},
		{
			"buffer":0,
			"byteLength":288,
			"byteOffset":4177584
		},
		{
			"buffer":0,
			"byteLength":24,
			"byteOffset":4177872
		},
		{
			"buffer":0,
			"byteLength":24,
			"byteOffset":4177896
		},
		{
			"buffer":0,
			"byteLength":32,
			"byteOffset":4177920
		},
		{
			"buffer":0,
			"byteLength":24,
			"byteOffset":4177952
		},
		{
			"buffer":0,
			"byteLength":24,
			"byteOffset":4177976
		},
		{
			"buffer":0,
			"byteLength":288,
			"byteOffset":4178000
		},
		{
			"buffer":0,
			"byteLength":24,
			"byteOffset":4178288
		},
		{
			"buffer":0,
			"byteLength":24,
			"byteOffset":4178312
		},
		{
			"buffer":0,
			"byteLength":288,
			"byteOffset":4178336
		},
		{
			"buffer":0,
			"byteLength":24,
			"byteOffset":4178624
		},
		{
			"buffer":0,
			"byteLength":288,
			"byteOffset":4178648
		},
		{
			"buffer":0,
			"byteLength":24,
			"byteOffset":4178936
		},
		{
			"buffer":0,
			"byteLength":32,
			"byteOffset":4178960
		},
		{
			"buffer":0,
			"byteLength":24,
			"byteOffset":4178992
		},
		{
			"buffer":0,
			"byteLength":288,
			"byteOffset":4179016
		},
		{
			"buffer":0,
			"byteLength":24,
			"byteOffset":4179304
		},
		{
			"buffer":0,
			"byteLength":288,
			"byteOffset":4179328
		},
		{
			"buffer":0,
			"byteLength":24,
			"byteOffset":4179616
		},
		{
			"buffer":0,
			"byteLength":24,
			"byteOffset":4179640
		},
		{
			"buffer":0,
			"byteLength":288,
			"byteOffset":4179664
		},
		{
			"buffer":0,
			"byteLength":24,
			"byteOffset":4179952
		},
		{
			"buffer":0,
			"byteLength":24,
			"byteOffset":4179976
		},
		{
			"buffer":0,
			"byteLength":288,
			"byteOffset":4180000
		},
		{
			"buffer":0,
			"byteLength":24,
			"byteOffset":4180288
		},
		{
			"buffer":0,
			"byteLength":24,
			"byteOffset":4180312
		},
		{
			"buffer":0,
			"byteLength":288,
			"byteOffset":4180336
		},
		{
			"buffer":0,
			"byteLength":24,
			"byteOffset":4180624
		},
		{
			"buffer":0,
			"byteLength":24,
			"byteOffset":4180648
		},
		{
			"buffer":0,
			"byteLength":288,
			"byteOffset":4180672
		},
		{
			"buffer":0,
			"byteLength":24,
			"byteOffset":4180960
		},
		{
			"buffer":0,
			"byteLength":288,
			"byteOffset":4180984
		},
		{
			"buffer":0,
			"byteLength":24,
			"byteOffset":4181272
		},
		{
			"buffer":0,
			"byteLength":288,
			"byteOffset":4181296
		},
		{
			"buffer":0,
			"byteLength":24,
			"byteOffset":4181584
		},
		{
			"buffer":0,
			"byteLength":288,
			"byteOffset":4181608
		},
		{
			"buffer":0,
			"byteLength":24,
			"byteOffset":4181896
		},
		{
			"buffer":0,
			"byteLength":288,
			"byteOffset":4181920
		},
		{
			"buffer":0,
			"byteLength":24,
			"byteOffset":4182208
		},
		{
			"buffer":0,
			"byteLength":288,
			"byteOffset":4182232
		},
		{
			"buffer":0,
			"byteLength":24,
			"byteOffset":4182520
		},
		{
			"buffer":0,
			"byteLength":24,
			"byteOffset":4182544
		},
		{
			"buffer":0,
			"byteLength":288,
			"byteOffset":4182568
		},
		{
			"buffer":0,
			"byteLength":24,
			"byteOffset":4182856
		},
		{
			"buffer":0,
			"byteLength":24,
			"byteOffset":4182880
		},
		{
			"buffer":0,
			"byteLength":288,
			"byteOffset":4182904
		},
		{
			"buffer":0,
			"byteLength":24,
			"byteOffset":4183192
		}
	],
	"samplers":[
		{
			"magFilter":9729,
			"minFilter":9987
		}
	],
	"buffers":[
		{
			"byteLength":4183216,
			"uri":"multimesh.bin"
		}
	]
}
