{
	"asset":{
		"generator":"Khronos glTF Blender I/O v5.2.39",
		"version":"2.0"
	},
	"scene":0,
	"scenes":[
		{
			"name":"Scene",
			"nodes":[
				0
			]
		}
	],
	"nodes":[
		{
			"mesh":0,
			"name":"MM00562_Biohazard_Crate",
			"rotation":[
				0.70710688829422,
				0,
				0,
				0.7071066498756409
			],
			"scale":[
				0.009999999776482582,
				0.009999999776482582,
				0.009999999776482582
			]
		}
	],
	"materials":[
		{
			"doubleSided":true,
			"name":"M_Biohazard_Crate",
			"pbrMetallicRoughness":{
				"baseColorFactor":[
					0.5,
					0.5,
					0.5,
					1
				],
				"metallicFactor":0.5,
				"roughnessFactor":0.7487671971321106
			}
		}
	],
	"meshes":[
		{
			"name":"Mesh",
			"primitives":[
				{
					"attributes":{
						"POSITION":0,
						"NORMAL":1,
						"TEXCOORD_0":2
					},
					"indices":3,
					"material":0
				}
			]
		}
	],
	"accessors":[
		{
			"bufferView":0,
			"componentType":5126,
			"count":3309,
			"max":[
				39.020111083984375,
				39.020118713378906,
				0.03526407852768898
			],
			"min":[
				-39.02010726928711,
				-39.02009582519531,
				-91.58631896972656
			],
			"type":"VEC3"
		},
		{
			"bufferView":1,
			"componentType":5126,
			"count":3309,
			"type":"VEC3"
		},
		{
			"bufferView":2,
			"componentType":5126,
			"count":3309,
			"type":"VEC2"
		},
		{
			"bufferView":3,
			"componentType":5123,
			"count":13578,
			"type":"SCALAR"
		}
	],
	"bufferViews":[
		{
			"buffer":0,
			"byteLength":39708,
			"byteOffset":0,
			"target":34962
		},
		{
			"buffer":0,
			"byteLength":39708,
			"byteOffset":39708,
			"target":34962
		},
		{
			"buffer":0,
			"byteLength":26472,
			"byteOffset":79416,
			"target":34962
		},
		{
			"buffer":0,
			"byteLength":27156,
			"byteOffset":105888,
			"target":34963
		}
	],
	"buffers":[
		{
			"byteLength":133044,
			"uri":"Untitled.bin"
		}
	]
}
